<?xml version="1.0" encoding="utf-8"?>
<!-- Generator: Adobe Illustrator 26.0.1, SVG Export Plug-In . SVG Version: 6.00 Build 0)  -->
<svg version="1.1" id="Layer_1" xmlns="http://www.w3.org/2000/svg" xmlns:xlink="http://www.w3.org/1999/xlink" x="0px" y="0px"
	 viewBox="0 0 955.74 399.83" style="enable-background:new 0 0 955.74 399.83;" xml:space="preserve">
<style type="text/css">
	.st0{display:none;}
	.st1{fill:#000;}
	.st2{fill:#000;stroke:#fff;stroke-width:4;stroke-miterlimit:10;}
</style>
<rect x="-482.13" y="-339.15" class="st0" width="1920" height="1080"/>
<g>
	<path class="st2" d="M331.84,303.18c8.59,0,16.88,0,25.61,0c0,8.93,0,17.46,0,26.5c-8.51,0-16.92,0-25.64,0
		c0,10.73,0,20.98,0,31.62c9.35,0,18.71,0,28,0c0-22.78-0.08-45.39,0.06-68c0.04-5.81,0.31-11.68,1.26-17.4
		c3.58-21.75,17.8-29.93,39.39-27.55c9.44,1.04,17.29,5.29,23.79,14.01c0-5.03,0-8.77,0-12.94c28.66,0,56.87,0,85.5,0
		c0,46.27,0,92.46,0,139.02c-8.59,0-17.3,0-26.52,0c0-37.24,0-74.46,0-112.03c-4.88,0-9.25,0-14.17,0c0,37.41,0,74.63,0,112.12
		c-9.45,0-18.37,0-28.02,0c0-37.34,0-74.67,0-112.23c-4.49,0-8.25,0-12.45,0c0,9.31,0,18.55,0,28.18c-9.45,0-18.48,0-28.21,0
		c0-7.89,0.09-15.67-0.04-23.45c-0.06-3.76-1.14-6.99-5.81-7.23c-3.31-0.17-5.5,1.29-6.18,4.53c-0.44,2.1-0.7,4.29-0.7,6.44
		c-0.05,22.65-0.04,45.3-0.01,67.95c0,1.99,0.25,3.99,0.55,5.96c0.51,3.34,2.26,5.56,5.88,5.62c3.69,0.06,5.42-2.4,5.98-5.56
		c0.46-2.6,0.4-5.3,0.42-7.96c0.05-7.12,0.02-14.25,0.02-21.7c9.55,0,18.62,0,29.01,0c-0.79,13.19-0.74,26.37-2.61,39.26
		c-1.5,10.28-8.65,17.64-18.97,19.63c-7.82,1.51-16.26,1.92-24.1,0.73c-11.47-1.73-18.35-9.97-23.04-20.58c0,6.74,0,13.48,0,20.45
		c-56.52,0-112.42,0-168.69,0c0-46.22,0-92.42,0-139.01c9.13,0,18.16,0,27.76,0c0,38.48,0,76.71,0,115.19c9.33,0,18.08,0,27.33,0
		c0-38.4,0-76.63,0-115.22c9.52,0,18.57,0,28.1,0c0,38.43,0,76.65,0,115.16c9.38,0,18.26,0,27.72,0c0-38.43,0-76.65,0-115.2
		c18.79,0,37.03,0,55.66,0c0,8.81,0,17.51,0,26.74c-8.98,0-17.74,0-26.85,0C331.84,285.26,331.84,293.82,331.84,303.18z"/>
	<path class="st2" d="M759.27,288.96c-9.4,0-18.49,0-28.23,0c0-3.21,0.11-6.16-0.03-9.11c-0.17-3.92-2.08-6.25-6.28-6.07
		c-4.19,0.18-6.66,2.92-5.63,6.51c1.32,4.59,3.45,9.37,6.55,12.92c5.67,6.51,12.2,12.28,18.55,18.17
		c18.64,17.3,19.42,38.37,12.47,60.72c-3.47,11.16-12.07,16.79-23.63,17.67c-3.97,0.3-8.01,0.31-11.97-0.07
		c-11.46-1.09-20.83-5.59-26.25-16.89c0,5.1,0,10.2,0,15.64c-38.11,0-75.63,0-113.52,0c0-10.92,0-21.7,0-33.9
		c-1.64,6.59-2.65,11.83-4.26,16.88c-3.28,10.26-10.59,16.44-21.21,16.94c-14.25,0.67-28.57,0.17-43.16,0.17
		c0-46.37,0-92.57,0-139.42c5.77,0,11.38-0.05,16.99,0.01c8.65,0.09,17.36-0.27,25.95,0.52c14.37,1.33,20.94,7.48,22.93,21.79
		c1.02,7.35,0.85,14.97,0.28,22.4c-0.59,7.74-4.52,13.84-12.89,17.26c10.79,4.14,13.09,12.99,15.19,22.31c0-27.9,0-55.8,0-84
		c9.45,0,18.37,0,27.79,0c0,38.3,0,76.52,0,115.13c9.38,0,18.27,0,27.76,0c0-38.14,0-76.35,0-114.99c18.93,0,37.26,0,56.2,0
		c0,6.53,0,12.88,0,20.31c11.33-20.44,24.88-26.19,45.41-20.08C752.88,254.14,760.85,268.76,759.27,288.96z M719.54,336.92
		c0,2.04-0.02,3.53,0,5.02c0.06,4.83-0.01,9.66,0.25,14.48c0.23,4.07,1.39,7.72,6.48,7.87c4.3,0.12,6.22-2.2,6.47-8.22
		c0.34-8.46-1.65-16.16-7.89-22.37c-6.84-6.81-13.66-13.66-20.39-20.59c-8.65-8.91-13.23-19.43-12.34-32.05
		c0.1-1.43,0.01-2.88,0.01-4.41c-9.18,0-17.89,0-26.52,0c0,9.02,0,17.6,0,26.76c8.76,0,17.17,0,25.75,0c0,9,0,17.41,0,26.5
		c-8.81,0-17.34,0-25.75,0c0,10.92,0,21.15,0,31.4c9.08,0,17.81,0,26.72,0c0-8.3,0-16.23,0-24.4
		C701.37,336.92,710.11,336.92,719.54,336.92z M540.17,324.14c0,13.36,0,26.41,0,39.42c9.12,1.29,13.01-1.87,13.11-10.46
		c0.07-5.99,0.11-11.98-0.04-17.97C553.02,325.59,550.09,323.1,540.17,324.14z M540.3,271.18c0,10.34,0,20.35,0,30.32
		c9.2,0.61,10.9-0.86,11.11-9.36c0.09-3.82,0.04-7.64,0.04-11.47C551.43,271.23,550.14,270.1,540.3,271.18z"/>
	<path class="st2" d="M462.45,11.11c4.38,45.69,8.74,91.2,13.1,136.71c0.23-0.01,0.47-0.01,0.7-0.02c0-45.51,0-91.03,0-136.83
		c10.04,0,19.63,0,29.79,0c0,41.15,0,82.33,0,123.9c9.6,0,18.65,0,28.39,0c0-41.09,0-82.26,0-123.81c10.06,0,19.44,0,29.15,0
		c0,49.83,0,99.52,0,149.55c-38.32,0-76.53,0-115.34,0c-0.72-7.59-1.45-15.29-2.22-23.42c-5.88,0-11.75,0-18.01,0
		c-0.63,7.8-1.25,15.54-1.89,23.5c-9.73,0-19.13,0-29.18,0c4.82-49.92,9.61-99.55,14.44-149.59
		C428.26,11.11,444.96,11.11,462.45,11.11z M437.21,36.94c-0.47,0-0.94,0.01-1.4,0.01c-1.84,25.03-3.67,50.06-5.52,75.28
		c4.61,0,8.78,0,13.45,0C441.53,86.81,439.37,61.88,437.21,36.94z"/>
	<path class="st2" d="M121.54,363.23c-7,20.58-15.45,26.89-35.22,26.82c-19.52-0.07-33.1-12.47-33.54-32.02
		c-0.55-24.63-0.16-49.28-0.05-73.92c0.01-3.14,0.54-6.31,1.19-9.4c5.41-26.01,37.45-36.32,57.52-18.55
		c5.06,4.49,7.59,9.35,9.49,18.37c0.22-0.28,0.48-0.47,0.53-0.7c4.12-20.25,18.82-27.16,38.35-25.72
		c17.78,1.31,29.07,12.42,29.47,30.39c0.58,26.13,0.79,52.3-0.02,78.41c-0.83,26.55-25.05,40.92-49.56,30.32
		c-8.16-3.53-13.18-9.89-16.13-18.07C122.92,367.36,122.33,365.54,121.54,363.23z M93.4,304.79c0-4.26,0.08-8.05-0.02-11.84
		c-0.13-4.81-0.37-9.65-0.88-14.38c-0.3-2.74-2.98-4.53-5.29-4.61c-3.25-0.22-5.36,1.13-6.12,4.36c-0.3,1.29-0.57,2.62-0.57,3.93
		c-0.03,24.47-0.03,48.94,0,73.42c0,1.15,0.3,4.16,0.55,5.09c0.98,3.57,4.06,3.29,5.78,3.31c3.41,0.06,5.23-1.72,5.76-4.86
		c0.47-2.77,0.72-5.61,0.76-8.42c0.1-7.25,0.03-14.51,0.03-22.27c9.45,0,18.19,0,26.98,0c0-8.1,0-15.68,0-23.74
		C111.35,304.79,102.61,304.79,93.4,304.79z M148.46,318.85c0,10.97-0.06,21.95,0.04,32.92c0.02,2.63-0.06,5.58,1.06,7.79
		c1.01,1.99,3.58,4.37,5.49,4.39c1.84,0.02,4.48-2.41,5.38-4.39c1.11-2.42,1.04-5.51,1.05-8.3c0.08-19.45,0.05-38.91,0.03-58.36
		c0-4.15,0.13-8.33-0.25-12.46c-0.31-3.39-1.29-6.68-5.83-6.67c-4.19,0-5.84,2.7-6.57,6.2c-0.37,1.77-0.38,3.63-0.39,5.45
		C148.45,296.57,148.46,307.71,148.46,318.85z"/>
	<path class="st2" d="M852.1,288.11c0,13.71,0,27.43,0,41.5c-3.19,0-6.09,0-9.42,0c0-18.64,0-37.34,0-56.77
		c4.36,0,8.81-0.26,13.18,0.17c1.16,0.11,2.57,2.18,3.09,3.63c4.11,11.42,8.03,22.9,12.02,34.37c0.48,1.37,1.03,2.71,2,5.24
		c1.57-4.23,2.79-7.4,3.93-10.6c3.47-9.71,7.01-19.39,10.3-29.16c0.96-2.84,2.35-3.96,5.36-3.73c3.45,0.26,6.93,0.06,10.68,0.06
		c0,19.18,0,37.92,0,56.9c-3.37,0-6.47,0-9.92,0c0-13.85,0-27.6,0-41.36c-0.26-0.09-0.53-0.17-0.79-0.26
		c-0.51,1.01-1.11,1.99-1.5,3.05c-4.37,11.68-8.83,23.32-12.98,35.08c-1.1,3.13-2.76,3.85-5.82,3.83c-3.04-0.02-4.77-0.64-5.84-3.84
		c-3.9-11.67-8.14-23.22-12.25-34.81c-0.42-1.17-0.87-2.33-1.31-3.5C852.59,287.98,852.34,288.04,852.1,288.11z"/>
	<path class="st2" d="M794.13,320.8c6.15,0.77,11.54,1.58,17.44,2.1c1.91,0.17,3.94-0.06,6.06-0.85c2.72-1.34,4.98-2.87,4.99-6.5
		c0.21-2.28-1.91-5.84-4.04-7.07c-5.13-2.98-10.92-4.81-16.33-7.34c-5.06-2.36-8.78-5.92-9.38-11.93
		c-0.82-8.18,2.34-13.63,10.13-16.17c9.04-2.94,17.99-2.05,27.34,1.54c-0.81,2.64-1.56,5.07-2.32,7.56c-3.76-1-7.05-2.22-10.45-2.68
		c-2.9-0.4-5.95-0.16-8.88,0.23c-3.73,0.5-5.95,2.89-6.31,6.67c-0.33,3.57,1.38,6.07,4.63,7.49c6.09,2.65,12.25,5.13,18.28,7.9
		c4.59,2.11,7.04,5.92,7.55,10.97c0.69,6.8-2.33,12.62-8.6,15.49c-9.24,4.22-18.87,3.74-28.3,0.99
		C791.04,327.78,793.63,323.65,794.13,320.8z"/>
</g>
</svg>
