<svg  xmlns="http://www.w3.org/2000/svg" width="67" height="49" viewBox="0 0 67 49"
            fill="none">
            <path
              d="M21.1155 1.81937C21.235 1.78886 21.3584 1.77665 21.4815 1.78317L43.7092 2.95928C44.3562 2.99352 44.8633 3.52816 44.8633 4.17612V6.0786L55.3693 3.00656C55.6403 2.9273 55.9305 2.94465 56.1901 3.05562L64.4462 6.58397C64.9531 6.80062 65.2514 7.33065 65.1736 7.87643L59.7755 45.7474C59.6988 46.2851 59.2756 46.7071 58.7378 46.7823C58.1999 46.8575 57.6773 46.5676 57.4561 46.0716L46.7574 22.0692L40.1265 23.7066C39.9207 23.7574 39.7052 23.7536 39.5013 23.6957L16.321 17.1094C16.217 17.0799 16.1174 17.0366 16.0248 16.9808L2.37064 8.748C1.94996 8.49434 1.72272 8.01289 1.79431 7.5269C1.8659 7.0409 2.22231 6.64542 2.69826 6.52385L21.1155 1.81937Z"
              fill="white" stroke="#00142D" stroke-width="2.43707" stroke-linejoin="round"></path>
          </svg>