<svg  xmlns="http://www.w3.org/2000/svg" width="67" height="49" viewBox="0 0 67 49"
            fill="none">
            <path
              d="M45.8518 1.81937C45.7323 1.78886 45.6089 1.77665 45.4858 1.78317L23.2581 2.95928C22.611 2.99352 22.1039 3.52816 22.1039 4.17612V6.0786L11.598 3.00656C11.327 2.9273 11.0368 2.94465 10.7771 3.05562L2.52113 6.58397C2.01419 6.80062 1.71586 7.33065 1.79366 7.87643L7.19182 45.7474C7.26845 46.2851 7.69164 46.7071 8.2295 46.7823C8.76735 46.8575 9.29003 46.5676 9.51114 46.0716L20.2099 22.0692L26.8408 23.7066C27.0466 23.7574 27.2621 23.7536 27.466 23.6957L50.6463 17.1094C50.7503 17.0799 50.8499 17.0366 50.9425 16.9808L64.5966 8.748C65.0173 8.49434 65.2446 8.01289 65.173 7.5269C65.1014 7.0409 64.745 6.64542 64.269 6.52385L45.8518 1.81937Z"
              fill="white" stroke="#00142D" stroke-width="2.43707" stroke-linejoin="round"></path>
</svg>
