 <svg width="117" height="103" viewBox="0 0 117 103" fill="none" xmlns="http://www.w3.org/2000/svg">
          <g filter="url(#filter0_d_868_18297)">
            <path
              d="M6.09416 10.5792C6.40496 9.2955 7.48899 8.3456 8.80241 8.20606L12.4388 7.81973L19.1281 7.73858L25.3981 7.66252C25.6764 7.65914 25.9539 7.69295 26.2232 7.76303L28.3466 8.31552C28.8877 8.45631 29.4567 8.44941 29.9942 8.29553L32.1035 7.6917C32.3711 7.6151 32.6477 7.57458 32.926 7.5712L59.2638 7.25169L86.021 6.9271L92.291 6.85104C92.5693 6.84766 92.8468 6.88147 93.1162 6.95155L95.2395 7.50403C95.7806 7.64483 96.3496 7.63793 96.8871 7.48405L98.9964 6.88022C99.264 6.80362 99.5406 6.76309 99.8189 6.75972L104.92 6.69784C105.674 6.68869 106.406 6.95241 106.98 7.44038L108.523 8.74981C108.809 8.99216 109.136 9.18124 109.488 9.30802L110.784 9.77426C112.012 10.2159 112.836 11.3735 112.852 12.6781L112.873 14.4148L112.968 22.2272L113.157 37.8518L113.508 66.7505L113.683 81.1999L113.771 88.4246L113.81 91.6874C113.813 91.9197 113.79 92.1515 113.742 92.3787L113.626 92.9189C113.337 94.2706 112.195 95.2722 110.817 95.382L107.168 95.6728L100.478 95.6963L93.7884 95.7198L87.0985 95.7434L80.4064 95.5941L73.7185 95.7904L60.3385 95.8375L33.5869 96.623L26.8976 96.7042L20.2027 96.3244L13.9701 96.8299C13.6709 96.8541 13.3699 96.8352 13.0761 96.7736L9.73792 96.0741C8.96106 95.9112 8.2752 95.459 7.81948 94.8092L7.3406 94.1263C6.97925 93.611 6.78184 92.9986 6.7742 92.3692L6.7421 89.7229L6.65446 82.4983L6.47917 68.0489L6.1286 39.1502L5.93906 23.5255L5.84428 15.7132L5.80166 12.1993C5.7985 11.9388 5.82791 11.679 5.88921 11.4258L6.09416 10.5792Z"
              fill="url(#paint0_linear_868_18297)" />
            <path
              d="M80.4203 94.969L80.4042 94.9686L80.388 94.9691L73.7082 95.1652L60.3363 95.2123L60.3282 95.2123L60.3201 95.2125L33.5793 95.9978L33.5743 95.9978L26.9115 96.0787L20.2381 95.7001L20.1951 95.6977L20.1522 95.7012L13.9195 96.2067C13.6802 96.2261 13.4394 96.2109 13.2044 96.1617L9.86617 95.4621C9.24468 95.3318 8.696 94.9701 8.33142 94.4502L7.85254 93.7673L7.3406 94.1263L7.85254 93.7673C7.56346 93.355 7.40553 92.8651 7.39942 92.3616L7.36732 89.7153L7.27967 82.4907L7.10439 68.0413L6.75382 39.1426L6.56427 23.518L6.4695 15.7056L6.42687 12.1917C6.42435 11.9833 6.44788 11.7754 6.49692 11.5729L6.70187 10.7264C6.95051 9.69938 7.81773 8.93945 8.86847 8.82782L12.4757 8.44459L19.1357 8.3638L25.4056 8.28774C25.6283 8.28504 25.8503 8.31208 26.0658 8.36815L28.1891 8.92063C28.8385 9.08959 29.5212 9.08131 30.1663 8.89665L32.2756 8.29282C32.4897 8.23154 32.7109 8.19912 32.9336 8.19642L59.2714 7.87691L86.0286 7.55232L92.2986 7.47626C92.5212 7.47356 92.7432 7.5006 92.9587 7.55667L95.082 8.10915C95.7314 8.27811 96.4142 8.26982 97.0592 8.08516L99.1685 7.48133C99.3826 7.42005 99.6039 7.38763 99.8265 7.38493L104.927 7.32306C105.53 7.31574 106.116 7.52671 106.576 7.91709L108.119 9.22652L108.523 8.74981L108.119 9.22652C108.461 9.51734 108.853 9.74423 109.276 9.89637L110.572 10.3626C111.555 10.7159 112.214 11.642 112.227 12.6857L112.248 14.4224L112.343 22.2347L112.532 37.8594L112.883 66.7581L113.058 81.2075L113.146 88.4321L113.185 91.695C113.187 91.8808 113.169 92.0663 113.13 92.248L113.015 92.7882C112.784 93.8696 111.87 94.6709 110.767 94.7587L107.142 95.0476L100.476 95.071L93.7862 95.0946L87.1045 95.1181L80.4203 94.969Z"
              stroke="#00142D" stroke-width="1.25053" />
          </g>
          <path
            d="M23.7537 4.54479C23.6741 4.52237 23.5913 4.51308 23.5086 4.51729L12.3164 5.08673C11.913 5.10726 11.5957 5.43909 11.5932 5.84304L11.588 6.71588L6.51456 5.08555C6.33457 5.02771 6.13951 5.03885 5.96728 5.11681L1.80005 7.003C1.49556 7.14082 1.31645 7.46099 1.35833 7.79258L3.95143 28.3239C3.99463 28.6659 4.2621 28.9363 4.60362 28.9832C4.94515 29.0301 5.27563 28.8419 5.40947 28.5242L10.8265 15.6659L14.0129 16.5333C14.1502 16.5706 14.2951 16.5688 14.4314 16.5281L26.1208 13.0308C26.1888 13.0105 26.2536 12.9808 26.3133 12.9425L33.2131 8.52433C33.4658 8.36252 33.6 8.06745 33.5559 7.77064C33.5118 7.47383 33.2975 7.23057 33.0087 7.14928L23.7537 4.54479Z"
            fill="white" stroke="#00142D" stroke-width="1.52381" stroke-linejoin="round" />
          <path
            d="M90.4747 98.037C90.5486 98.0588 90.6254 98.0692 90.7025 98.068L103.105 97.8673C103.51 97.8607 103.839 97.5383 103.854 97.1334L103.889 96.1844L109.572 98.075C109.74 98.1308 109.921 98.1266 110.086 98.0632L114.756 96.267C115.078 96.1432 115.276 95.8189 115.24 95.4761L113.008 74.2753C112.973 73.9376 112.718 73.6642 112.383 73.6049C112.049 73.5456 111.716 73.7147 111.566 74.0196L105.148 87.1057L101.555 86.0774C101.428 86.0409 101.293 86.0383 101.165 86.0698L88.1208 89.264C88.0552 89.2801 87.9919 89.3048 87.9328 89.3376L80.1605 93.6434C79.8918 93.7922 79.7388 94.0878 79.7724 94.3932C79.806 94.6985 80.0196 94.9538 80.3142 95.0406L90.4747 98.037Z"
            fill="white" stroke="#00142D" stroke-width="1.52381" stroke-linejoin="round" />
          <defs>
            <filter id="filter0_d_868_18297" x="5.80151" y="6.69751" width="110.51" height="92.6436"
              filterUnits="userSpaceOnUse" color-interpolation-filters="sRGB">
              <feFlood flood-opacity="0" result="BackgroundImageFix" />
              <feColorMatrix in="SourceAlpha" type="matrix" values="0 0 0 0 0 0 0 0 0 0 0 0 0 0 0 0 0 0 127 0"
                result="hardAlpha" />
              <feOffset dx="2.50105" dy="2.50105" />
              <feComposite in2="hardAlpha" operator="out" />
              <feColorMatrix type="matrix" values="0 0 0 0 0 0 0 0 0 0 0 0 0 0 0 0 0 0 0.25 0" />
              <feBlend mode="normal" in2="BackgroundImageFix" result="effect1_dropShadow_868_18297" />
              <feBlend mode="normal" in="SourceGraphic" in2="effect1_dropShadow_868_18297" result="shape" />
            </filter>
            <linearGradient id="paint0_linear_868_18297" x1="5.43715" y1="7.66321" x2="124.28" y2="25.708"
              gradientUnits="userSpaceOnUse">
              <stop stop-color="#C1ECFF" />
              <stop offset="0.25" stop-color="#C1ECFF" />
              <stop offset="0.381662" stop-color="white" />
              <stop offset="0.608286" stop-color="#C2ECFF" />
              <stop offset="1" stop-color="#C1ECFF" />
            </linearGradient>
          </defs>
        </svg>