      <svg width="290" height="166" viewBox="0 0 290 166" fill="none" xmlns="http://www.w3.org/2000/svg">
          <g filter="url(#filter0_d_793_4099)">
            <path
              d="M5.82717 21.0664C6.41447 19.2007 8.03571 17.8488 9.97655 17.6063L21.4209 16.1764L38.2634 15.1302L54.6575 14.1118C54.9559 14.0933 55.2553 14.1015 55.5522 14.1365L62.7222 14.9808C63.3173 15.0509 63.92 15.0135 64.5018 14.8703L71.5122 13.1451C71.8025 13.0736 72.0986 13.0284 72.397 13.0098L139.319 8.85275L206.689 4.6678L223.083 3.64942C223.381 3.63089 223.681 3.63915 223.978 3.67412L231.148 4.51846C231.743 4.58853 232.345 4.55108 232.927 4.40791L239.938 2.68271C240.228 2.61126 240.524 2.566 240.822 2.54747L255.88 1.6121C256.756 1.55772 257.63 1.73461 258.415 2.12502L263.982 4.8915C264.401 5.09987 264.847 5.24833 265.308 5.33252L270.616 6.30281C272.876 6.71611 274.564 8.61742 274.707 10.9113L274.869 13.5299L275.68 26.577L277.301 52.6711L280.299 100.934L281.798 125.065L282.547 137.131L282.871 142.335C282.905 142.884 282.848 143.434 282.703 143.964L282.352 145.249C281.809 147.233 280.107 148.682 278.062 148.901L266.448 150.146L249.6 151.096L232.751 152.046L215.903 152.996L199.036 153.658L182.206 154.896L148.509 156.796L81.1864 161.751L64.3439 162.797L47.4535 163.074L31.1376 164.838C30.8191 164.872 30.4981 164.876 30.1789 164.849L19.6206 163.957C18.5755 163.868 17.5847 163.454 16.7883 162.771L15.0473 161.279C14.0208 160.4 13.3942 159.142 13.3104 157.793L13.0668 153.87L12.3173 141.805L10.8182 117.673L7.82024 69.4109L6.1993 43.3168L5.38884 30.2697L5.04114 24.6724C5.00311 24.0601 5.07805 23.4461 5.26224 22.861L5.82717 21.0664Z"
              fill="url(#paint0_linear_793_4099)" />
            <path
              d="M148.452 155.798L148.444 155.798L148.435 155.799L81.1244 160.753L81.1183 160.753L64.3048 161.798L47.4371 162.074L47.3915 162.075L47.346 162.08L31.0301 163.844C30.7753 163.871 30.5185 163.874 30.2632 163.853L19.7048 162.96C18.8688 162.89 18.0761 162.558 17.439 162.012L15.698 160.52C14.8768 159.816 14.3755 158.81 14.3085 157.731L14.0648 153.808L13.3153 141.743L11.8163 117.611L8.81831 69.3489L7.19738 43.2548L6.38691 30.2077L6.03921 24.6104C6.00879 24.1206 6.06875 23.6294 6.21609 23.1613L6.78103 21.3667C7.25086 19.8741 8.54785 18.7926 10.1005 18.5986L21.514 17.1726L38.3254 16.1283L54.7195 15.1099C54.9582 15.0951 55.1978 15.1017 55.4353 15.1296L62.6053 15.974C63.3193 16.0581 64.0426 16.0131 64.7408 15.8413L71.7511 14.1161C71.9834 14.059 72.2203 14.0228 72.459 14.0079L139.381 9.85083L206.751 5.66588L223.145 4.6475C223.384 4.63267 223.623 4.63928 223.861 4.66726L231.031 5.51159C231.745 5.59568 232.468 5.55075 233.166 5.37894L240.177 3.65373C240.409 3.59658 240.646 3.56037 240.884 3.54554L255.942 2.61018C256.642 2.56667 257.342 2.70818 257.97 3.02051L263.537 5.78699C264.04 6.03704 264.575 6.21519 265.128 6.31622L270.436 7.28651C272.244 7.61715 273.595 9.1382 273.709 10.9733L273.871 13.5919L274.682 26.639L276.303 52.7331L279.301 100.996L280.8 125.127L281.549 137.193L281.873 142.397C281.9 142.836 281.855 143.276 281.739 143.7L281.387 144.985C280.953 146.572 279.591 147.732 277.955 147.907L266.367 149.149L249.544 150.098L232.695 151.048L215.864 151.997L215.846 151.998L198.997 152.658L198.98 152.659L198.963 152.66L182.149 153.898L182.141 153.898L148.452 155.798Z"
              stroke="#00142D" stroke-width="2" />
          </g>
          <path
            d="M56.5381 21.4933C56.9288 21.2147 57.1196 20.7326 57.0254 20.262C56.9313 19.7915 56.5696 19.42 56.1018 19.3132L40.4187 15.7334C40.2896 15.7039 40.1567 15.6957 40.025 15.709L21.3695 17.5948C20.7267 17.6598 20.2464 18.2152 20.2747 18.8606L20.3421 20.3962L11.6539 18.0755C11.3618 17.9975 11.0511 18.0308 10.7822 18.1691L3.97593 21.6689C3.50056 21.9133 3.23999 22.4391 3.33335 22.9654L9.38036 57.0582C9.47665 57.6011 9.92546 58.0117 10.4747 58.0594C11.024 58.1071 11.5369 57.78 11.7253 57.2619L19.721 35.2762L25.1663 36.4703C25.3885 36.5191 25.62 36.5046 25.8344 36.4286L45.0764 29.6087C45.1833 29.5708 45.2844 29.5182 45.3768 29.4523L56.5381 21.4933Z"
            fill="white" stroke="#00142D" stroke-width="2.43707" stroke-linejoin="round" />
          <path
            d="M229.233 144.645C228.816 144.904 228.595 145.389 228.673 145.874C228.751 146.359 229.112 146.749 229.59 146.865L246.819 151.024C246.939 151.053 247.062 151.063 247.185 151.055L267.894 149.684C268.541 149.642 269.041 149.1 269.032 148.452L269.01 146.789L278.737 149.494C279.009 149.569 279.299 149.548 279.557 149.434L287.211 146.042C287.715 145.819 288.007 145.285 287.922 144.74L282.422 109.499C282.338 108.962 281.909 108.546 281.37 108.478C280.832 108.41 280.313 108.706 280.098 109.205L270.447 131.652L264.311 130.223C264.105 130.175 263.89 130.181 263.686 130.242L242.156 136.668C242.052 136.699 241.953 136.744 241.862 136.801L229.233 144.645Z"
            fill="white" stroke="#00142D" stroke-width="2.43707" stroke-linejoin="round" />
          <defs>
            <filter id="filter0_d_793_4099" x="5.03149" y="1.60254" width="281.849" height="167.264"
              filterUnits="userSpaceOnUse" color-interpolation-filters="sRGB">
              <feFlood flood-opacity="0" result="BackgroundImageFix" />
              <feColorMatrix in="SourceAlpha" type="matrix" values="0 0 0 0 0 0 0 0 0 0 0 0 0 0 0 0 0 0 127 0"
                result="hardAlpha" />
              <feOffset dx="4" dy="4" />
              <feComposite in2="hardAlpha" operator="out" />
              <feColorMatrix type="matrix" values="0 0 0 0 0 0 0 0 0 0 0 0 0 0 0 0 0 0 0.25 0" />
              <feBlend mode="normal" in2="BackgroundImageFix" result="effect1_dropShadow_793_4099" />
              <feBlend mode="normal" in="SourceGraphic" in2="effect1_dropShadow_793_4099" result="shape" />
            </filter>
            <linearGradient id="paint0_linear_793_4099" x1="3.77421" y1="16.8679" x2="297.185" y2="70.4832"
              gradientUnits="userSpaceOnUse">
              <stop stop-color="#C1ECFF" />
              <stop offset="0.25" stop-color="#C1ECFF" />
              <stop offset="0.381662" stop-color="white" />
              <stop offset="0.608286" stop-color="#C2ECFF" />
              <stop offset="1" stop-color="#C1ECFF" />
            </linearGradient>
          </defs>
        </svg>