<?xml version="1.0" encoding="utf-8"?>
<!-- Generator: Adobe Illustrator 26.0.1, SVG Export Plug-In . SVG Version: 6.00 Build 0)  -->
<svg version="1.1" id="Layer_1" xmlns="http://www.w3.org/2000/svg" xmlns:xlink="http://www.w3.org/1999/xlink" x="0px" y="0px"
	 viewBox="0 0 147 150" style="enable-background:new 0 0 147 150;" xml:space="preserve">
<style type="text/css">
	.st0{fill:#E5F2FF;}
	.st1{fill:none;stroke:#A7D9FF;stroke-width:2;}
	.st2{fill:#80ABFF;}
</style>
<g>
	<path class="st0" d="M4.29,7.91c0.62-2.85,3-5,5.9-5.32l2.79-0.31l8.77,0.05l7.25,0.04c1,0.01,2,0.18,2.94,0.5
		c1.91,0.66,3.98,0.67,5.9,0.03c0.95-0.32,1.95-0.47,2.96-0.47l33.56,0.2l35.07,0.21l7.25,0.04c1,0.01,2,0.18,2.94,0.5
		c1.9,0.66,3.98,0.67,5.9,0.03c0.95-0.32,1.95-0.47,2.96-0.47l3.49,0.02c2.4,0.01,4.68,1.03,6.3,2.8l0.26,0.29
		c0.58,0.64,1.28,1.16,2.07,1.53c2.34,1.1,3.82,3.47,3.79,6.06l-0.02,2.1l-0.15,12.7l-0.3,25.41l-0.55,46.99l-0.27,23.5l-0.14,11.75
		l-0.06,5.32c0,0.37-0.04,0.73-0.11,1.09c-0.53,2.7-2.79,4.73-5.54,4.94l-3.19,0.25l-8.77-0.14l-8.77-0.15l-8.77-0.15l-8.76-0.43
		l-8.77,0.14l-17.53-0.29l-35.08,0.54l-8.77-0.05l-7.82-0.71c-0.62-0.06-1.25-0.06-1.87-0.01l-5.87,0.47
		c-1.3,0.1-2.61-0.02-3.86-0.38l-1.83-0.52c-1.78-0.5-3.27-1.7-4.14-3.32c-0.55-1.01-0.82-2.15-0.81-3.31l0.05-4.11l0.14-11.75
		l0.27-23.5l0.55-46.99l0.3-25.41l0.15-12.7l0.07-5.66C4.14,8.82,4.2,8.36,4.29,7.91z"/>
	<path class="st1" d="M137.53,6.46l0.74-0.68L137.53,6.46l0.26,0.29c0.67,0.74,1.48,1.33,2.38,1.76c1.99,0.94,3.24,2.95,3.22,5.15
		l-0.02,2.1l-0.15,12.7l-0.3,25.41l-0.55,46.99l-0.27,23.5l-0.14,11.75l-0.06,5.32c0,0.31-0.04,0.61-0.09,0.91
		c-0.44,2.26-2.34,3.95-4.63,4.13l-3.15,0.24l-8.72-0.14l-8.77-0.15l-8.75-0.15l-8.75-0.43l-0.03,0l-0.03,0l-8.75,0.14L72.7,145.7
		h-0.02h-0.02l-35.06,0.54H37.6l-8.71-0.05l-7.78-0.71c-0.68-0.06-1.36-0.07-2.04-0.01l-5.87,0.47c-1.18,0.09-2.37-0.02-3.51-0.34
		l-1.83-0.52c-1.52-0.43-2.79-1.45-3.54-2.84c-0.47-0.87-0.7-1.84-0.69-2.83l0.05-4.11l0.14-11.75l0.27-23.5l0.55-46.99l0.3-25.41
		l0.15-12.7l0.07-5.66c0-0.39,0.05-0.78,0.13-1.16C5.8,5.69,7.83,3.86,10.3,3.59l2.74-0.3l8.71,0.05L29,3.38
		c0.89,0.01,1.78,0.16,2.62,0.45c2.11,0.73,4.41,0.74,6.54,0.04c0.85-0.28,1.74-0.42,2.63-0.42l33.56,0.2l35.07,0.21l7.25,0.04
		c0.89,0.01,1.78,0.16,2.62,0.45c2.11,0.73,4.41,0.74,6.54,0.04c0.85-0.28,1.74-0.42,2.63-0.42l3.49,0.02
		C134.08,3.99,136.1,4.89,137.53,6.46z"/>
</g>
<g>
	<path class="st2" d="M47,86.88h6.11v2.1h-3.8v4.09h2.98v2.1h-2.98v6.4H47V86.88z"/>
	<path class="st2" d="M54.22,86.88h2.31v12.6h3.8v2.1h-6.11V86.88z"/>
	<path class="st2" d="M61.45,86.88h6.3v2.1h-3.99v3.88h3.17v2.1h-3.17v4.51h3.99v2.1h-6.3V86.88z"/>
	<path class="st2" d="M71.15,94.06l-2.54-7.18h2.44l1.55,4.75h0.04l1.6-4.75h2.18l-2.54,7.18l2.67,7.52h-2.44l-1.68-5.12h-0.04
		l-1.72,5.12h-2.18L71.15,94.06z"/>
	<path class="st2" d="M77.64,86.88h2.31v14.7h-2.31V86.88z"/>
	<path class="st2" d="M81.67,86.88h3.49c2.39,0,3.42,1.11,3.42,3.38v0.59c0,1.51-0.46,2.46-1.49,2.88v0.04
		c1.24,0.42,1.72,1.51,1.72,3.07v1.26c0,2.27-1.2,3.49-3.51,3.49h-3.63V86.88z M84.88,92.87c0.86,0,1.39-0.38,1.39-1.55v-0.82
		c0-1.05-0.36-1.51-1.18-1.51h-1.11v3.88H84.88z M85.3,99.48c0.78,0,1.2-0.36,1.2-1.45v-1.28c0-1.37-0.44-1.79-1.49-1.79h-1.03v4.51
		H85.3z"/>
	<path class="st2" d="M90.15,86.88h2.31v12.6h3.8v2.1h-6.11V86.88z"/>
	<path class="st2" d="M97.38,86.88h6.3v2.1h-3.99v3.88h3.17v2.1h-3.17v4.51h3.99v2.1h-6.3V86.88z"/>
	<path class="st2" d="M31.18,107.87h5.26c3.57,0,5.32,1.98,5.32,5.61v2.24c0,3.63-1.75,5.61-5.32,5.61h-1.69v9.25h-3.57V107.87z
		 M36.44,118.09c1.13,0,1.75-0.52,1.75-2.14v-2.69c0-1.62-0.62-2.14-1.75-2.14h-1.69v6.97H36.44z"/>
	<path class="st2" d="M45.32,107.87h4.83l3.7,22.71h-3.57l-0.65-4.51v0.06h-4.05l-0.65,4.44h-3.31L45.32,107.87z M49.22,123.05
		l-1.59-11.22h-0.07l-1.56,11.22H49.22z"/>
	<path class="st2" d="M57.36,120.91l-4.31-13.04h3.79l2.43,8.34h0.06l2.43-8.34h3.47l-4.31,13.04v9.67h-3.57V120.91z"/>
	<path class="st2" d="M66.87,107.87h5.09l2.27,16.25h0.07l2.27-16.25h5.09v22.71h-3.37v-17.19h-0.07l-2.59,17.19h-2.98l-2.6-17.19
		h-0.06v17.19h-3.11V107.87z"/>
	<path class="st2" d="M84.32,107.87h9.73v3.24h-6.16v6h4.9v3.24h-4.9v6.97h6.16v3.24h-9.73V107.87z"/>
	<path class="st2" d="M96.1,107.87h4.48l3.47,13.59h0.06v-13.59h3.18v22.71h-3.67L99.34,114h-0.06v16.58H96.1V107.87z"/>
	<path class="st2" d="M112.74,111.12h-3.73v-3.24h11.03v3.24h-3.73v19.46h-3.57V111.12z"/>
</g>
<g>
	<path class="st2" d="M78.83,35.42c-7.71-0.03-14.43,6.26-14.49,14.44c-0.06,8.32,6.81,14.74,14.51,14.65c0,0.17,0,0.34,0,0.51
		c0,2.19,0,4.38,0,6.57c0,2.31-1.52,3.81-3.82,3.81c-7.09,0-14.17,0-21.26,0c-2.31,0-3.82-1.5-3.82-3.82c0-14.42,0-28.84,0-43.26
		c0-2.32,1.51-3.81,3.82-3.82c0.83,0,1.66-0.02,2.49,0.02c0.19,0.01,0.46,0.16,0.56,0.33c0.65,1.07,1.26,2.17,1.91,3.24
		c0.1,0.17,0.37,0.33,0.56,0.33c3.41,0.02,6.82,0.02,10.23,0c0.19,0,0.46-0.16,0.56-0.33c0.65-1.07,1.25-2.17,1.91-3.24
		c0.1-0.17,0.37-0.32,0.56-0.33c0.9-0.03,1.8-0.02,2.7-0.01c1.89,0.02,3.47,1.34,3.56,3.24C78.91,30.29,78.83,32.83,78.83,35.42z
		 M64.41,69.35C64.41,69.35,64.41,69.35,64.41,69.35c-0.37,0-0.74-0.02-1.11,0c-0.7,0.03-1.24,0.54-1.29,1.22
		c-0.05,0.62,0.37,1.28,1.02,1.34c0.9,0.08,1.83,0.09,2.73,0c0.67-0.07,1.07-0.74,1-1.4c-0.07-0.63-0.58-1.12-1.24-1.16
		C65.15,69.34,64.78,69.35,64.41,69.35z"/>
	<path class="st2" d="M88.41,28.49c5.85,0.32,10.66,4.67,11.7,10.27c0.13,0.69,0.18,1.4,0.22,2.1c0.05,0.93-0.46,1.55-1.26,1.58
		c-0.81,0.03-1.35-0.52-1.38-1.46c-0.13-4.89-3.5-8.5-7.45-9.51c-0.78-0.2-1.6-0.28-2.4-0.34c-0.95-0.08-1.5-0.55-1.48-1.37
		c0.02-0.8,0.63-1.31,1.55-1.29C88.09,28.47,88.25,28.48,88.41,28.49z"/>
	<path class="st2" d="M94.97,40.88c0.02,0.92-0.49,1.54-1.28,1.56c-0.81,0.02-1.33-0.54-1.37-1.48c-0.12-2.45-2.02-4.35-4.46-4.46
		c-0.96-0.04-1.53-0.58-1.49-1.41c0.04-0.79,0.65-1.26,1.6-1.24C91.7,33.93,94.9,37.14,94.97,40.88z"/>
	<path class="st2" d="M59.71,24.54c3.15,0,6.21,0,9.37,0c-0.33,0.58-0.63,1.13-0.97,1.65c-0.06,0.1-0.27,0.14-0.42,0.14
		c-2.21,0.01-4.41,0.01-6.62,0c-0.14,0-0.34-0.05-0.41-0.15C60.34,25.66,60.05,25.13,59.71,24.54z"/>
	<path class="st2" d="M78.79,38.1c-6.5,0.02-11.82,5.37-11.81,11.87c0.01,6.52,5.38,11.87,11.9,11.84
		c6.51-0.03,11.83-5.38,11.81-11.87C90.67,43.41,85.32,38.08,78.79,38.1z M84.1,45.11c-0.64,0-1.28,0-1.97,0
		c0.28,0.62,0.53,1.17,0.81,1.78c0.33,0,0.72,0,1.15,0c0,0.55,0,1.06,0,1.61c-0.41,0-0.8,0-1.2,0c-0.81,2.86-2.9,3.61-5.63,3.36
		c1.59,1.57,3.1,3.06,4.64,4.58c-0.48,0.4-0.87,0.73-1.3,1.09c-0.02-0.02-0.16-0.14-0.28-0.26c-1.61-1.61-3.22-3.22-4.83-4.83
		c-0.32-0.32-0.59-0.71-1.16-0.55c0-0.55,0-1.05,0-1.59c0.18-0.01,0.36-0.03,0.54-0.03c1.27,0,2.54,0.01,3.81-0.01
		c1.21-0.01,2.1-0.63,2.49-1.74c-2.75,0-5.48,0-8.25,0c0-0.56,0-1.06,0-1.62c2.72,0,5.46,0,8.2,0c-0.1-0.79-0.92-1.57-1.82-1.73
		c-0.31-0.06-0.63-0.07-0.95-0.07c-1.8-0.01-3.61,0-5.46,0c0-0.56,0-1.05,0-1.57c3.73,0,7.45,0,11.2,0
		C84.1,44.06,84.1,44.55,84.1,45.11z"/>
</g>
</svg>
