 <svg width="140" height="151" viewBox="0 0 140 151" fill="none" xmlns="http://www.w3.org/2000/svg">
              <g filter="url(#filter0_d_1321_309)">
                <path
                  d="M1.55683 5.61676C2.14301 2.75389 4.50673 0.606966 7.41404 0.296757L9.865 0.0352401L18.2581 0.1613L25.1967 0.265516C26.1593 0.279973 27.1136 0.458498 28.0186 0.793411C29.8419 1.46814 31.8367 1.49811 33.6696 0.878286C34.5794 0.57063 35.5361 0.420809 36.4987 0.435266L68.6165 0.917663L102.189 1.4219L109.127 1.52612C110.09 1.54058 111.044 1.7191 111.949 2.05402C113.773 2.72875 115.768 2.75871 117.6 2.13889C118.51 1.83123 119.467 1.68141 120.429 1.69587L123.655 1.74432C126.017 1.77979 128.258 2.8247 129.812 4.61494L130.043 4.88154C130.607 5.53108 131.293 6.06363 132.061 6.44853C134.295 7.56756 135.702 9.86074 135.684 12.3518L135.667 14.6306L135.573 27.3351L135.384 52.744L135.036 99.7392L134.862 123.237L134.775 134.986L134.735 140.333C134.732 140.684 134.7 141.033 134.637 141.378C134.142 144.087 131.886 146.11 129.138 146.309L126.295 146.515L117.903 146.295L109.51 146.075L101.118 145.855L92.7278 145.355L84.3333 145.416L67.5485 144.976L33.9707 145.222L25.5776 145.096L18.1677 144.322C17.5172 144.254 16.8625 144.244 16.2112 144.293L10.767 144.697C9.46127 144.794 8.14703 144.648 6.89083 144.266L5.35412 143.799C3.56914 143.257 2.07655 142.013 1.22055 140.353C0.709173 139.361 0.446222 138.262 0.454467 137.15L0.485463 132.969L0.572565 121.22L0.746769 97.7222L1.09518 50.727L1.28355 25.3181L1.37774 12.6136L1.41995 6.92036C1.42319 6.4821 1.46904 6.04551 1.55683 5.61676Z"
                  fill="#E5F2FF" />
                <path
                  d="M92.7798 144.356L92.7463 144.354L92.7129 144.355L84.335 144.416L67.5671 143.977L67.5504 143.976L67.5336 143.976L33.9667 144.222L25.6295 144.096L18.264 143.327C17.5544 143.253 16.8401 143.243 16.1296 143.295L10.6855 143.7C9.50282 143.787 8.31248 143.655 7.17472 143.309L6.89083 144.266L7.17471 143.309L5.638 142.843C4.11387 142.38 2.8394 141.317 2.10849 139.9C1.67184 139.053 1.44731 138.114 1.45435 137.165L1.48535 132.984L1.57245 121.235L1.74666 97.7372L2.09506 50.742L2.28344 25.3331L2.37762 12.6287L2.41983 6.93538C2.4226 6.56192 2.46166 6.18989 2.53647 5.82454C3.03598 3.38501 5.05018 1.55555 7.52758 1.29121L9.91826 1.03612L18.2507 1.16127L25.1893 1.26549C26.0382 1.27824 26.8798 1.43568 27.6779 1.73104C29.7165 2.48546 31.947 2.51896 33.9963 1.82594C34.7986 1.55462 35.6424 1.42249 36.4913 1.43524L68.6091 1.91764L102.181 2.42188L109.12 2.52609C109.969 2.53884 110.811 2.69628 111.609 2.99164C113.647 3.74606 115.878 3.77956 117.927 3.08654C118.729 2.81522 119.573 2.68309 120.422 2.69584L123.648 2.74429C125.723 2.77546 127.693 3.69385 129.059 5.2673L129.812 4.61494L129.059 5.26731L129.29 5.53392C129.941 6.2834 130.732 6.89792 131.619 7.34206C133.509 8.28886 134.7 10.2291 134.684 12.3368L134.667 14.6156L134.573 27.32L134.385 52.7289L134.036 99.7242L133.862 123.222L133.775 134.971L133.735 140.318C133.733 140.611 133.705 140.903 133.653 141.191C133.24 143.454 131.354 145.145 129.058 145.311L126.265 145.514L117.921 145.295L109.529 145.075L101.153 144.856L92.7798 144.356Z"
                  stroke="#A7D9FF" stroke-width="2" />
              </g>
              <path
                d="M73.4605 29.0916V22.9849C73.4605 22.2226 72.9934 21.4583 72.2162 21.1522C71.2819 20.8481 70.5026 21.0001 69.8804 21.6104L61.6309 29.7017C61.1638 30.1599 61.0087 30.6161 61.0087 31.2283C61.0087 31.6865 61.1638 32.2968 61.6309 32.6009L69.8804 40.6922C70.3476 41.1504 70.8147 41.3024 71.2818 41.3024C71.594 41.3024 71.749 41.3024 72.0591 41.1504C72.8363 40.8443 73.3034 40.082 73.3034 39.3177V33.211C82.4853 33.211 89.9554 40.5379 89.9554 49.5437C89.9554 58.5495 82.4853 65.8764 73.3034 65.8764C65.5211 65.8764 58.83 60.6863 57.1166 53.2074C56.8045 52.1389 55.7152 51.3747 54.6259 51.6808C53.5366 51.9869 52.7573 53.0553 53.0694 54.1237C55.2481 63.4353 63.4975 70.0002 73.3011 70.0002C84.6615 70.0002 94 60.8407 94 49.6982C94.0041 38.5556 84.8204 29.0916 73.4605 29.0916Z"
                fill="#80ABFF" />
              <path
                d="M59.441 93.0168H63.0006C63.8344 93.0168 64.3475 93.5459 64.3475 94.2354C64.3475 94.9248 63.8344 95.454 63.0006 95.454H58.1903C57.4367 95.454 56.9396 94.9569 56.9396 94.2033V86.1541C56.9396 85.4005 57.4367 84.9034 58.1903 84.9034H62.9044C63.7382 84.9034 64.2513 85.4325 64.2513 86.122C64.2513 86.8115 63.7382 87.3406 62.9044 87.3406H59.441V88.912H61.2529C62.0546 88.912 62.5516 89.4251 62.5516 90.0825C62.5516 90.7399 62.0546 91.253 61.2529 91.253H59.441V93.0168ZM70.3916 91.5576C70.0067 90.6116 69.7341 89.7778 69.4616 88.8318C69.189 89.7778 68.9004 90.6116 68.5316 91.5576H70.3916ZM71.2414 93.7062H67.6657L67.2809 94.6202C67.0243 95.2135 66.7037 95.6143 66.0302 95.6143C65.3087 95.6143 64.8276 95.1333 64.8276 94.4438C64.8276 94.2193 64.8757 93.8987 65.004 93.594L68.1949 85.7853C68.4835 85.0798 68.8843 84.7431 69.4616 84.7431C70.0388 84.7431 70.4397 85.0798 70.7283 85.7853L73.9191 93.594C74.0474 93.8987 74.0955 94.2193 74.0955 94.4438C74.0955 95.1333 73.6145 95.6143 72.8929 95.6143C72.2195 95.6143 71.8988 95.2135 71.6422 94.6202L71.2414 93.7062ZM78.5315 95.6464C76.3348 95.6464 74.6832 94.7645 74.6832 93.4818C74.6832 92.8564 75.0841 92.3594 75.8698 92.3594C76.9601 92.3594 76.8639 93.3054 78.5635 93.3054C79.4454 93.3054 79.7982 93.0328 79.7982 92.5838C79.7982 91.7661 78.756 91.6218 77.6817 91.2851C76.3508 90.8842 74.8436 90.0504 74.8436 87.8858C74.8436 85.9456 76.0782 84.711 78.5635 84.711C80.7121 84.711 81.9628 85.641 81.9628 86.6992C81.9628 87.3246 81.5299 87.7735 80.8084 87.7735C79.9104 87.7735 79.8784 87.052 78.6116 87.052C77.7618 87.052 77.4091 87.3566 77.4091 87.8377C77.4091 88.6234 78.323 88.8959 79.2049 89.1525C80.632 89.5854 82.3637 90.2108 82.3637 92.5037C82.3637 94.3636 81.1771 95.6464 78.5315 95.6464ZM87.0195 89.2006C87.4364 88.2065 87.7731 87.4368 88.19 86.6672L88.7833 85.5608C89.0719 85.0317 89.4567 84.7431 90.034 84.7431C90.7234 84.7431 91.1884 85.192 91.1884 85.8975C91.1884 86.2182 91.0922 86.5549 90.9479 86.8115L88.2702 91.718V94.2354C88.2702 95.0852 87.725 95.6143 87.0195 95.6143C86.314 95.6143 85.7688 95.0852 85.7688 94.2354V91.718L83.0911 86.8115C82.9468 86.5549 82.8506 86.2182 82.8506 85.8975C82.8506 85.192 83.3156 84.7431 84.0051 84.7431C84.5823 84.7431 84.9671 85.0317 85.2557 85.5608L85.849 86.6672C86.2659 87.4368 86.6026 88.2065 87.0195 89.2006Z"
                fill="#80ABFF" />
              <path
                d="M31.7164 126.672V101.73H36.5267C40.8025 101.73 43.1186 104.046 43.1186 107.966C43.1186 111.885 40.9807 114.023 36.5267 114.023V114.558H37.7738C41.1945 114.558 42.9404 116.232 42.9404 119.297V124.534C42.9404 126.138 43.8312 126.316 43.8312 126.316V126.672H39.9117C38.7359 126.672 38.1301 126.138 38.1301 124.285V118.655C38.1301 117.408 37.5957 116.874 36.5267 116.874V126.672H31.7164ZM36.5267 111.707H36.7049C37.5957 111.707 38.3083 110.994 38.3083 108.5C38.3083 106.184 37.5957 105.471 36.7049 105.471H36.5267V111.707ZM44.1917 126.672V101.73H53.456V106.006H49.002V111.707H52.2089V115.983H49.002V122.397H53.456V126.672H44.1917ZM57.0081 126.672V106.006H53.4449V101.73H65.3815V106.006H61.8183V126.672H57.0081ZM71.6074 127.207C68.4005 127.207 65.9063 124.713 65.9063 118.655V101.73H70.7166V119.724C70.7166 122.931 71.0729 123.287 71.6074 123.287C72.1418 123.287 72.4982 122.931 72.4982 119.724V101.73H77.3085V118.655C77.3085 124.713 74.8142 127.207 71.6074 127.207ZM78.7295 126.672V101.73H83.5398C87.8157 101.73 90.1317 104.046 90.1317 107.966C90.1317 111.885 87.9938 114.023 83.5398 114.023V114.558H84.787C88.2076 114.558 89.9536 116.232 89.9536 119.297V124.534C89.9536 126.138 90.8444 126.316 90.8444 126.316V126.672H86.9249C85.749 126.672 85.1433 126.138 85.1433 124.285V118.655C85.1433 117.408 84.6088 116.874 83.5398 116.874V126.672H78.7295ZM83.5398 111.707H83.718C84.6088 111.707 85.3214 110.994 85.3214 108.5C85.3214 106.184 84.6088 105.471 83.718 105.471H83.5398V111.707ZM91.2049 126.672V101.73H96.0152L99.5783 120.081H100.113L98.1531 101.73H103.142V126.672H98.3312L94.768 108.322H94.2336L96.1933 126.672H91.2049ZM109.895 127.207C106.51 127.207 104.194 124.891 104.194 121.149C104.194 119.368 104.55 118.299 104.55 118.299H108.826V120.081C108.826 122.753 109.36 123.287 109.895 123.287C110.429 123.287 110.786 122.931 110.786 121.506C110.786 116.767 104.194 114.558 104.194 108.001C104.194 103.69 106.688 101.196 109.895 101.196C113.102 101.196 115.596 103.69 115.596 107.609C115.596 109.177 115.24 110.104 115.24 110.104H110.964V108.322C110.964 105.65 110.429 105.115 109.895 105.115C109.36 105.115 109.004 105.471 109.004 107.075C109.004 111.671 115.596 113.881 115.596 120.437C115.596 124.713 113.102 127.207 109.895 127.207Z"
                fill="#80ABFF" />
              <defs>
                <filter id="filter0_d_1321_309" x="0.454346" y="0.0352478" width="139.23" height="150.479"
                  filterUnits="userSpaceOnUse" color-interpolation-filters="sRGB">
                  <feFlood flood-opacity="0" result="BackgroundImageFix" />
                  <feColorMatrix in="SourceAlpha" type="matrix" values="0 0 0 0 0 0 0 0 0 0 0 0 0 0 0 0 0 0 127 0"
                    result="hardAlpha" />
                  <feOffset dx="4" dy="4" />
                  <feComposite in2="hardAlpha" operator="out" />
                  <feColorMatrix type="matrix" values="0 0 0 0 0 0 0 0 0 0 0 0 0 0 0 0 0 0 0.25 0" />
                  <feBlend mode="normal" in2="BackgroundImageFix" result="effect1_dropShadow_1321_309" />
                  <feBlend mode="normal" in="SourceGraphic" in2="effect1_dropShadow_1321_309" result="shape" />
                </filter>
              </defs>
            </svg>