<svg width="147" height="150" viewBox="0 0 147 150" fill="none" xmlns="http://www.w3.org/2000/svg">
              <g filter="url(#filter0_d_1731_3328)">
                <path
                  d="M2.65499 6.1918C3.27563 3.33803 5.65476 1.19355 8.55616 0.872667L11.3509 0.563578L20.1188 0.614948L27.3719 0.657444C28.375 0.663321 29.3694 0.833409 30.3156 1.16096C32.2208 1.82048 34.2939 1.83263 36.2143 1.19552C37.1681 0.879101 38.1663 0.720687 39.1694 0.726564L72.7262 0.923171L107.798 1.12865L115.051 1.17115C116.054 1.17703 117.048 1.34711 117.995 1.67466C119.9 2.33418 121.973 2.34633 123.893 1.70922C124.847 1.39281 125.845 1.23439 126.848 1.24027L130.334 1.26069C132.736 1.27476 135.018 2.28972 136.63 4.06131L136.891 4.34783C137.473 4.98739 138.175 5.50637 138.957 5.8756C141.298 6.9797 142.776 9.34572 142.745 11.9389L142.721 14.0384L142.572 26.7426L142.275 52.1511L141.726 99.1456L141.451 122.643L141.313 134.391L141.251 139.715C141.247 140.081 141.209 140.447 141.139 140.807C140.614 143.509 138.345 145.533 135.602 145.747L132.409 145.995L123.642 145.85L114.876 145.705L106.109 145.56L97.3452 145.134L88.5751 145.27L71.0415 144.98L35.9612 145.524L27.1933 145.472L19.3702 144.757C18.7473 144.7 18.1204 144.696 17.4963 144.746L11.6219 145.213C10.3226 145.317 9.01667 145.188 7.76488 144.835L5.93282 144.317C4.15684 143.815 2.66304 142.616 1.79037 140.992C1.24453 139.977 0.965379 138.838 0.978898 137.682L1.02699 133.57L1.16438 121.821L1.43916 98.3237L1.98874 51.3292L2.28587 25.9207L2.43444 13.2165L2.50068 7.55175C2.50603 7.09465 2.55773 6.639 2.65499 6.1918Z"
                  fill="#E5F2FF" />
                <path
                  d="M135.889 4.73663L136.63 4.06131L135.889 4.73664L136.149 5.02317C136.819 5.75878 137.626 6.3557 138.526 6.78039C140.515 7.71866 141.771 9.72933 141.745 11.933L141.721 14.0325L141.572 26.7368L141.275 52.1453L140.726 99.1397L140.451 122.637L140.313 134.386L140.251 139.709C140.248 140.015 140.216 140.321 140.158 140.622C139.719 142.879 137.822 144.571 135.53 144.75L132.384 144.994L123.665 144.85L114.898 144.705L106.147 144.56L97.3996 144.135L97.3676 144.133L97.3356 144.134L88.5814 144.27L71.0639 143.98L71.0479 143.98L71.0319 143.98L35.9729 144.524L35.9622 144.524L27.2477 144.473L19.467 143.761C18.7875 143.699 18.1036 143.695 17.4228 143.749L11.5484 144.216C10.3672 144.31 9.17998 144.194 8.042 143.872L6.20993 143.355C4.6931 142.926 3.41727 141.902 2.67195 140.515C2.20575 139.648 1.96733 138.675 1.97888 137.687L2.02697 133.575L2.16436 121.827L2.43915 98.3295L2.98872 51.3351L3.28585 25.9266L3.43442 13.2223L3.50067 7.5576C3.50522 7.16812 3.54927 6.77988 3.63214 6.39883C4.16098 3.96721 6.18817 2.13996 8.66037 1.86655L11.3973 1.56385L20.1071 1.61488L27.3602 1.65738C28.2541 1.66261 29.1403 1.81419 29.9835 2.10609C32.0961 2.83739 34.3949 2.85086 36.5243 2.14441C37.3742 1.86243 38.2638 1.72126 39.1577 1.7265L72.7145 1.9231L107.786 2.12858L115.039 2.17108C115.933 2.17632 116.819 2.32789 117.663 2.61979C119.775 3.35109 122.074 3.36456 124.203 2.65811C125.053 2.37614 125.943 2.23496 126.837 2.2402L130.322 2.26062C132.446 2.27306 134.463 3.17039 135.889 4.73663Z"
                  stroke="#A7D9FF" stroke-width="2" />
              </g>
              <path
                d="M96.7676 30.033L71.2526 20.0605L45.7375 30.033L53.6642 33.133L71.1612 39.9657C71.1907 39.9582 71.2129 39.9507 71.2498 39.9507C71.2793 39.9507 71.3089 39.9582 71.3384 39.9657L74.4416 38.7532L96.7676 30.033Z"
                fill="#80ABFF" />
              <path d="M45.115 38.7332L70.9059 48.8106V40.6231L45.115 30.5533V38.7332Z" fill="#80ABFF" />
              <path d="M47.6792 61.2503L70.9054 70.328V49.5703L47.6792 40.4925V61.2503Z" fill="#80ABFF" />
              <path d="M71.5999 70.328L94.8336 61.2503V40.4925L71.5999 49.5703V70.328Z" fill="#80ABFF" />
              <path d="M71.5999 40.6231V48.8106L97.3908 38.7332V30.5533L71.5999 40.6231Z" fill="#80ABFF" />
              <path
                d="M57.0697 86.2968H58.8816C59.6833 86.2968 60.1804 86.8099 60.1804 87.4673C60.1804 88.1247 59.6833 88.6378 58.8816 88.6378H57.0697V91.2354C57.0697 92.0852 56.5245 92.6143 55.819 92.6143C55.1295 92.6143 54.5683 92.0852 54.5683 91.2354V83.1541C54.5683 82.4005 55.0654 81.9034 55.819 81.9034H60.5331C61.3669 81.9034 61.88 82.4325 61.88 83.122C61.88 83.8115 61.3669 84.3406 60.5331 84.3406H57.0697V86.2968ZM65.541 86.6816H66.968C67.8339 86.6816 68.3951 86.2968 68.3951 85.5111C68.3951 84.7254 67.8339 84.3406 66.968 84.3406H65.541V86.6816ZM65.541 89.0226V91.2354C65.541 92.0852 64.9958 92.6143 64.2903 92.6143C63.5848 92.6143 63.0396 92.0852 63.0396 91.2354V83.1541C63.0396 82.4005 63.5367 81.9034 64.2903 81.9034H66.984C69.3892 81.9034 70.9285 83.3144 70.9285 85.447C70.9285 86.7618 70.3352 87.7559 69.3251 88.3492L70.6238 90.3214C70.8323 90.6421 71.0407 90.9788 71.0407 91.4759C71.0407 92.1333 70.6078 92.6143 69.8702 92.6143C69.1808 92.6143 68.844 92.1974 68.4913 91.6202L66.8878 89.0226H65.541ZM74.983 90.0168H78.5427C79.3764 90.0168 79.8895 90.5459 79.8895 91.2354C79.8895 91.9248 79.3764 92.454 78.5427 92.454H73.7324C72.9788 92.454 72.4817 91.9569 72.4817 91.2033V83.1541C72.4817 82.4005 72.9788 81.9034 73.7324 81.9034H78.4465C79.2802 81.9034 79.7933 82.4325 79.7933 83.122C79.7933 83.8115 79.2802 84.3406 78.4465 84.3406H74.983V85.912H76.7949C77.5966 85.912 78.0937 86.4251 78.0937 87.0825C78.0937 87.7399 77.5966 88.253 76.7949 88.253H74.983V90.0168ZM83.7048 90.0168H87.2645C88.0982 90.0168 88.6113 90.5459 88.6113 91.2354C88.6113 91.9248 88.0982 92.454 87.2645 92.454H82.4542C81.7005 92.454 81.2035 91.9569 81.2035 91.2033V83.1541C81.2035 82.4005 81.7005 81.9034 82.4542 81.9034H87.1683C88.002 81.9034 88.5151 82.4325 88.5151 83.122C88.5151 83.8115 88.002 84.3406 87.1683 84.3406H83.7048V85.912H85.5167C86.3184 85.912 86.8155 86.4251 86.8155 87.0825C86.8155 87.7399 86.3184 88.253 85.5167 88.253H83.7048V90.0168Z"
                fill="#80ABFF" />
              <path
                d="M18.3216 123.672V98.7301H27.5859V103.006H23.1319V108.707H26.3388V112.983H23.1319V119.397H27.5859V123.672H18.3216ZM27.2185 123.672L30.9598 109.954L27.5748 98.7301H32.7414L33.9885 106.569H34.523V98.7301H39.5114L35.9483 110.667L39.8678 123.672H34.7011L32.9196 114.586H32.3851V123.672H27.2185ZM45.3977 124.207C42.0126 124.207 38.9839 121.178 38.9839 111.201C38.9839 101.224 42.0126 98.1956 45.3977 98.1956C48.4264 98.1956 50.9206 100.868 50.9206 105.856C50.9206 107.638 50.5643 108.707 50.5643 108.707H46.2884V106.925C46.2884 102.65 45.754 102.115 45.2195 102.115C44.685 102.115 44.1505 102.65 44.1505 111.201C44.1505 119.753 44.685 120.287 45.2195 120.287C45.754 120.287 46.2884 119.753 46.2884 115.477V113.695H50.5643C50.5643 113.695 50.9206 114.764 50.9206 116.546C50.9206 121.534 48.4264 124.207 45.3977 124.207ZM51.9895 123.672V98.7301H56.7998V109.063H58.5814V98.7301H63.3917V123.672H58.5814V113.339H56.7998V123.672H51.9895ZM63.7439 123.672L66.4163 98.7301H74.0771L76.7495 123.672H71.761L71.5116 119.397H68.9817L68.7323 123.672H63.7439ZM69.2668 115.121H71.2265L70.5139 103.362H69.9794L69.2668 115.121ZM77.1142 123.672V98.7301H81.9244L85.4876 117.081H86.0221L84.0624 98.7301H89.0508V123.672H84.2405L80.6773 105.322H80.1429L82.1026 123.672H77.1142ZM96.5168 124.207C93.1318 124.207 90.1031 121.178 90.1031 111.201C90.1031 101.224 93.1318 98.1956 96.5168 98.1956C99.5455 98.1956 102.04 100.868 102.04 105.856C102.04 107.638 101.683 108.707 101.683 108.707H97.4076V106.925C97.4076 102.65 96.8731 102.115 96.3386 102.115C95.8042 102.115 95.2697 102.65 95.2697 111.201V111.558H101.505C101.505 111.558 102.04 113.161 102.04 115.655C102.04 121.713 99.5455 124.207 96.5168 124.207ZM96.3386 120.287C96.8731 120.287 97.4076 119.753 97.4076 115.833V114.943H95.2697C95.4478 119.931 95.8042 120.287 96.3386 120.287ZM103.109 123.672V98.7301H112.373V103.006H107.919V108.707H111.126V112.983H107.919V119.397H112.373V123.672H103.109ZM118.597 124.207C115.212 124.207 112.896 121.891 112.896 118.149C112.896 116.368 113.253 115.299 113.253 115.299H117.528V117.081C117.528 119.753 118.063 120.287 118.597 120.287C119.132 120.287 119.488 119.931 119.488 118.506C119.488 113.767 112.896 111.558 112.896 105.001C112.896 100.69 115.391 98.1956 118.597 98.1956C121.804 98.1956 124.298 100.69 124.298 104.609C124.298 106.177 123.942 107.104 123.942 107.104H119.666V105.322C119.666 102.65 119.132 102.115 118.597 102.115C118.063 102.115 117.707 102.471 117.707 104.075C117.707 108.671 124.298 110.881 124.298 117.437C124.298 121.713 121.804 124.207 118.597 124.207Z"
                fill="#80ABFF" />
              <defs>
                <filter id="filter0_d_1731_3328" x="0.978516" y="0.563568" width="145.767" height="149.431"
                  filterUnits="userSpaceOnUse" color-interpolation-filters="sRGB">
                  <feFlood flood-opacity="0" result="BackgroundImageFix" />
                  <feColorMatrix in="SourceAlpha" type="matrix" values="0 0 0 0 0 0 0 0 0 0 0 0 0 0 0 0 0 0 127 0"
                    result="hardAlpha" />
                  <feOffset dx="4" dy="4" />
                  <feComposite in2="hardAlpha" operator="out" />
                  <feColorMatrix type="matrix" values="0 0 0 0 0 0 0 0 0 0 0 0 0 0 0 0 0 0 0.25 0" />
                  <feBlend mode="normal" in2="BackgroundImageFix" result="effect1_dropShadow_1731_3328" />
                  <feBlend mode="normal" in="SourceGraphic" in2="effect1_dropShadow_1731_3328" result="shape" />
                </filter>
              </defs>
            </svg>