<?xml version="1.0" encoding="utf-8"?>
<!-- Generator: Adobe Illustrator 26.0.1, SVG Export Plug-In . SVG Version: 6.00 Build 0)  -->
<svg version="1.1" id="Layer_1" xmlns="http://www.w3.org/2000/svg" xmlns:xlink="http://www.w3.org/1999/xlink" x="0px" y="0px"
	 viewBox="0 0 147 150" style="enable-background:new 0 0 147 150;" xml:space="preserve">
<style type="text/css">
	.st0{fill:#E5F2FF;}
	.st1{fill:none;stroke:#A7D9FF;stroke-width:2;}
	.st2{fill:#80ABFF;}
</style>
<g>
	<path class="st0" d="M4.29,7.91c0.62-2.85,3-5,5.9-5.32l2.79-0.31l8.77,0.05l7.25,0.04c1,0.01,2,0.18,2.94,0.5
		c1.91,0.66,3.98,0.67,5.9,0.03c0.95-0.32,1.95-0.47,2.96-0.47l33.56,0.2l35.07,0.21l7.25,0.04c1,0.01,2,0.18,2.94,0.5
		c1.9,0.66,3.98,0.67,5.9,0.03c0.95-0.32,1.95-0.47,2.96-0.47l3.49,0.02c2.4,0.01,4.68,1.03,6.3,2.8l0.26,0.29
		c0.58,0.64,1.28,1.16,2.07,1.53c2.34,1.1,3.82,3.47,3.79,6.06l-0.02,2.1l-0.15,12.7l-0.3,25.41l-0.55,46.99l-0.27,23.5l-0.14,11.75
		l-0.06,5.32c0,0.37-0.04,0.73-0.11,1.09c-0.53,2.7-2.79,4.73-5.54,4.94l-3.19,0.25l-8.77-0.14l-8.77-0.15l-8.77-0.15l-8.76-0.43
		l-8.77,0.14l-17.53-0.29l-35.08,0.54l-8.77-0.05l-7.82-0.71c-0.62-0.06-1.25-0.06-1.87-0.01l-5.87,0.47
		c-1.3,0.1-2.61-0.02-3.86-0.38l-1.83-0.52c-1.78-0.5-3.27-1.7-4.14-3.32c-0.55-1.01-0.82-2.15-0.81-3.31l0.05-4.11l0.14-11.75
		l0.27-23.5l0.55-46.99l0.3-25.41l0.15-12.7l0.07-5.66C4.14,8.82,4.2,8.36,4.29,7.91z"/>
	<path class="st1" d="M137.53,6.46l0.74-0.68L137.53,6.46l0.26,0.29c0.67,0.74,1.48,1.33,2.38,1.76c1.99,0.94,3.24,2.95,3.22,5.15
		l-0.02,2.1l-0.15,12.7l-0.3,25.41l-0.55,46.99l-0.27,23.5l-0.14,11.75l-0.06,5.32c0,0.31-0.04,0.61-0.09,0.91
		c-0.44,2.26-2.34,3.95-4.63,4.13l-3.15,0.24l-8.72-0.14l-8.77-0.15l-8.75-0.15l-8.75-0.43l-0.03,0l-0.03,0l-8.75,0.14L72.7,145.7
		h-0.02h-0.02l-35.06,0.54H37.6l-8.71-0.05l-7.78-0.71c-0.68-0.06-1.36-0.07-2.04-0.01l-5.87,0.47c-1.18,0.09-2.37-0.02-3.51-0.34
		l-1.83-0.52c-1.52-0.43-2.79-1.45-3.54-2.84c-0.47-0.87-0.7-1.84-0.69-2.83l0.05-4.11l0.14-11.75l0.27-23.5l0.55-46.99l0.3-25.41
		l0.15-12.7l0.07-5.66c0-0.39,0.05-0.78,0.13-1.16C5.8,5.69,7.83,3.86,10.3,3.59l2.74-0.3l8.71,0.05L29,3.38
		c0.89,0.01,1.78,0.16,2.62,0.45c2.11,0.73,4.41,0.74,6.54,0.04c0.85-0.28,1.74-0.42,2.63-0.42l33.56,0.2l35.07,0.21l7.25,0.04
		c0.89,0.01,1.78,0.16,2.62,0.45c2.11,0.73,4.41,0.74,6.54,0.04c0.85-0.28,1.74-0.42,2.63-0.42l3.49,0.02
		C134.08,3.99,136.1,4.89,137.53,6.46z"/>
</g>
<g>
	<path class="st2" d="M62.06,23.9c0.38,0.4,0.61,1.65,0.33,2.13c-0.11,0.19-0.37,0.37-0.59,0.4c-0.19,0.02-0.47-0.13-0.59-0.3
		c-0.36-0.47-0.12-1.87,0.34-2.23C61.72,23.9,61.89,23.9,62.06,23.9z"/>
	<path class="st2" d="M62.47,28.69c0,0.19,0.01,0.37,0,0.56c-0.03,0.41-0.26,0.67-0.67,0.69c-0.42,0.02-0.67-0.24-0.71-0.65
		c-0.03-0.42-0.03-0.85,0.01-1.27c0.03-0.39,0.29-0.63,0.69-0.62c0.41,0.01,0.65,0.26,0.69,0.68
		C62.48,28.28,62.47,28.49,62.47,28.69z"/>
	<path class="st2" d="M91.71,33.05c0-0.2-0.03-0.41,0.01-0.61c0.06-0.4,0.29-0.66,0.72-0.64c0.4,0.01,0.63,0.26,0.67,0.64
		c0.04,0.4,0.03,0.82,0,1.22c-0.03,0.41-0.28,0.67-0.69,0.67c-0.42,0-0.65-0.26-0.7-0.67C91.69,33.46,91.71,33.25,91.71,33.05z"/>
	<path class="st2" d="M91.71,36.57c0-0.19-0.01-0.38,0-0.56c0.03-0.43,0.24-0.72,0.7-0.72c0.45,0,0.68,0.28,0.7,0.71
		c0.02,0.37,0.02,0.75,0,1.12c-0.03,0.43-0.34,0.74-0.72,0.71c-0.42-0.03-0.64-0.29-0.68-0.69C91.7,36.95,91.71,36.76,91.71,36.57
		C91.71,36.57,91.71,36.57,91.71,36.57z"/>
	<path class="st2" d="M63.51,27.6c-0.22,0-0.44,0.02-0.66,0c-0.4-0.05-0.6-0.3-0.59-0.7c0.01-0.37,0.22-0.62,0.59-0.65
		c0.44-0.03,0.88-0.03,1.32,0c0.4,0.02,0.62,0.3,0.62,0.67c0,0.38-0.22,0.64-0.62,0.68C63.95,27.62,63.73,27.61,63.51,27.6
		C63.51,27.6,63.51,27.6,63.51,27.6z"/>
	<path class="st2" d="M60.02,27.61c-0.2,0-0.41,0.01-0.61,0c-0.42-0.04-0.65-0.28-0.64-0.7c0.01-0.4,0.24-0.64,0.63-0.66
		c0.42-0.02,0.85-0.02,1.27,0c0.4,0.02,0.62,0.29,0.63,0.67c0,0.38-0.21,0.64-0.61,0.68C60.46,27.62,60.24,27.6,60.02,27.61
		C60.02,27.61,60.02,27.61,60.02,27.61z"/>
	<path class="st2" d="M94.14,35.49c-0.22,0-0.44,0.02-0.66-0.01c-0.37-0.05-0.57-0.29-0.58-0.66c-0.01-0.37,0.18-0.65,0.55-0.68
		c0.47-0.04,0.95-0.04,1.42,0c0.37,0.03,0.57,0.31,0.56,0.67c-0.01,0.38-0.23,0.63-0.63,0.67C94.58,35.51,94.36,35.49,94.14,35.49
		C94.14,35.49,94.14,35.49,94.14,35.49z"/>
	<path class="st2" d="M90.65,35.49c-0.2,0-0.41,0.02-0.61,0c-0.4-0.04-0.62-0.28-0.63-0.68c-0.01-0.37,0.19-0.64,0.57-0.67
		c0.46-0.04,0.92-0.04,1.38,0c0.4,0.03,0.6,0.32,0.58,0.71c-0.02,0.37-0.24,0.6-0.61,0.63C91.09,35.51,90.87,35.49,90.65,35.49z"/>
	<g>
		<path class="st2" d="M99.12,57.18c0.13-0.09,0.26-0.19,0.39-0.29c-0.96-0.94-2.22-1.18-3.35-0.59c-2.67,1.41-5.32,2.85-7.98,4.29
			c-0.12,0.07-0.24,0.23-0.26,0.37c-0.11,0.61-0.29,0.78-0.92,0.76c-1.08-0.04-2.15-0.14-3.22-0.14c-1.99,0-3.99,0.04-5.98,0.1
			c-0.59,0.02-0.95-0.14-1-0.6c-0.05-0.46,0.24-0.77,0.84-0.79c1.91-0.06,3.82-0.1,5.73-0.13c1.01-0.02,2.01,0,3.04,0
			c-0.3-1.67-1.82-2.89-3.74-2.91c-1.67-0.02-3.35-0.05-5.02,0.01c-1.77,0.06-3.41-0.28-4.99-1.09c-1.67-0.85-3.47-1.09-5.33-0.83
			c-1.99,0.28-3.7,1.14-5.14,2.54c-0.83,0.81-1.75,1.48-2.85,1.86c-0.06,0.02-0.11,0.07-0.17,0.13c0.97,3.19,1.94,6.36,2.92,9.57
			c1.34-0.84,2.62-1.64,3.9-2.47c0.92-0.59,1.92-0.79,2.99-0.6c1.93,0.34,3.86,0.73,5.79,1.06c1.66,0.29,3.33,0.63,5,0.76
			c1.82,0.14,3.6-0.21,5.13-1.25C89.65,63.71,94.38,60.44,99.12,57.18z"/>
		<path class="st2" d="M87.97,57.25c-0.37,0.2-0.73,0.41-1.09,0.6c0.28,0.5,0.53,0.95,0.79,1.42c2.06-1.11,4.1-2.21,6.14-3.32
			c-0.78-0.77-1.74-0.92-2.65-0.43C90.1,56.1,89.04,56.67,87.97,57.25z"/>
		<path class="st2" d="M53.51,75c2.75-0.02,5.5-0.01,8.25-0.01c0.16,0,0.32-0.01,0.52-0.02c-0.04-0.16-0.07-0.26-0.1-0.36
			c-1.73-5.68-3.46-11.36-5.18-17.03c-0.3-0.99-0.3-0.99-1.36-0.99c-1.6,0-3.21,0-4.88,0c0.23,1.93,0.45,3.77,0.68,5.62
			c0.5,4.08,1.01,8.17,1.49,12.25C52.97,74.87,53.1,75,53.51,75z M57.27,70.08c1.19,0.02,2.13,0.98,2.12,2.17
			c-0.01,1.19-0.97,2.12-2.17,2.11c-1.18-0.01-2.14-0.98-2.13-2.16C55.11,71.03,56.1,70.06,57.27,70.08z"/>
		<path class="st2" d="M84.06,55.95c0.55,0.28,1.09,0.56,1.63,0.82c0.07,0.03,0.2,0.01,0.28-0.03c0.9-0.48,1.79-0.96,2.76-1.48
			C86.92,54.24,85.49,55.06,84.06,55.95z"/>
	</g>
	<path class="st2" d="M75.29,26.09c-6.75-0.05-12.32,5.46-12.38,12.27c-0.06,6.76,5.46,12.36,12.24,12.41
		c6.81,0.05,12.4-5.41,12.45-12.19C87.64,31.69,82.18,26.14,75.29,26.09z M77.43,35.14c0.04,0.09,0.2,0.17,0.31,0.18
		c0.34,0.03,0.68,0.02,1.02,0.03c0.52,0.02,0.83,0.3,0.82,0.72c-0.02,0.4-0.32,0.65-0.82,0.66c-0.43,0.01-0.85,0-1.29,0
		c-0.58,1.99-1.89,3.02-4.06,3.08c0.17,0.17,0.29,0.3,0.42,0.42c1.09,1.06,2.19,2.11,3.28,3.17c0.3,0.29,0.44,0.61,0.19,1
		c-0.26,0.4-0.73,0.41-1.14,0.02c-0.74-0.7-1.48-1.42-2.21-2.13c-0.89-0.85-1.77-1.71-2.66-2.56c-0.27-0.26-0.49-0.54-0.31-0.94
		c0.17-0.37,0.49-0.43,0.85-0.43c0.67,0.01,1.33,0.03,2,0.01c0.99-0.03,1.77-0.63,2.14-1.63c-0.17-0.01-0.33-0.03-0.49-0.03
		c-1.23-0.02-2.46-0.03-3.69-0.05c-0.56-0.01-0.83-0.26-0.84-0.69c0-0.45,0.3-0.7,0.87-0.69c1.2,0,2.39,0.02,3.59,0.02
		c0.18,0,0.36,0,0.61,0c-0.38-0.97-1-1.56-1.96-1.67c-0.73-0.08-1.47-0.06-2.2-0.08c-0.58-0.02-0.88-0.26-0.88-0.7
		c0-0.45,0.3-0.68,0.89-0.68c2.25,0.02,4.51,0.03,6.76,0.05c0.65,0.01,0.98,0.26,0.96,0.73c-0.01,0.45-0.33,0.68-0.95,0.68
		c-0.61,0-1.23,0-1.84,0C77.02,34.15,77.21,34.65,77.43,35.14z"/>
	<path class="st2" d="M57.24,72.98c-0.41-0.01-0.73-0.35-0.73-0.76c0-0.41,0.34-0.74,0.75-0.74c0.41,0.01,0.73,0.35,0.73,0.76
		C57.98,72.65,57.64,72.98,57.24,72.98z"/>
</g>
<g>
	<path class="st2" d="M49.5,86.88h2.31v5.98h2.48v-5.98h2.31v14.7h-2.31v-6.61h-2.48v6.61H49.5V86.88z"/>
	<path class="st2" d="M58.32,86.88h2.31v14.7h-2.31V86.88z"/>
	<path class="st2" d="M62.18,98.09v-7.73c0-2.35,1.18-3.7,3.44-3.7s3.44,1.34,3.44,3.7v1.26h-2.18v-1.41c0-1.05-0.46-1.45-1.2-1.45
		s-1.2,0.4-1.2,1.45v8.04c0,1.05,0.46,1.43,1.2,1.43s1.2-0.38,1.2-1.43v-2.88h-1.15v-2.1h3.34v4.81c0,2.35-1.18,3.7-3.44,3.7
		S62.18,100.45,62.18,98.09z"/>
	<path class="st2" d="M70.56,86.88h2.31v5.98h2.48v-5.98h2.31v14.7h-2.31v-6.61h-2.48v6.61h-2.31V86.88z"/>
	<path class="st2" d="M79.38,86.88h6.3v2.1h-3.99v3.88h3.17v2.1h-3.17v4.51h3.99v2.1h-6.3V86.88z"/>
	<path class="st2" d="M86.65,98.09v-0.84h2.18v1.01c0,1.05,0.46,1.43,1.2,1.43c0.73,0,1.2-0.38,1.2-1.47c0-1.22-0.46-2-1.97-3.32
		c-1.93-1.7-2.56-2.9-2.56-4.58c0-2.31,1.2-3.65,3.44-3.65c2.25,0,3.36,1.34,3.36,3.7v0.61h-2.18v-0.76c0-1.05-0.42-1.45-1.15-1.45
		c-0.74,0-1.16,0.4-1.16,1.41c0,1.07,0.48,1.85,2,3.17c1.93,1.7,2.54,2.88,2.54,4.7c0,2.39-1.22,3.74-3.49,3.74
		S86.65,100.45,86.65,98.09z"/>
	<path class="st2" d="M96.66,88.98h-2.42v-2.1h7.14v2.1h-2.41v12.6h-2.31V88.98z"/>
	<path class="st2" d="M15.3,107.87h5.26c3.57,0,5.32,1.98,5.32,5.61v2.24c0,3.63-1.75,5.61-5.32,5.61h-1.69v9.25H15.3V107.87z
		 M20.56,118.09c1.14,0,1.75-0.52,1.75-2.14v-2.69c0-1.62-0.62-2.14-1.75-2.14h-1.69v6.97H20.56z"/>
	<path class="st2" d="M27.82,107.87h5.29c3.7,0,5.29,1.72,5.29,5.22v1.39c0,2.34-0.75,3.83-2.34,4.48v0.06
		c1.78,0.55,2.37,2.24,2.37,4.8v3.99c0,1.1,0.03,1.91,0.39,2.76h-3.63c-0.19-0.58-0.32-0.94-0.32-2.79v-4.15
		c0-2.11-0.62-2.79-2.24-2.79h-1.23v9.73h-3.57V107.87z M32.69,117.6c1.33,0,2.14-0.58,2.14-2.4v-1.75c0-1.62-0.55-2.34-1.82-2.34
		h-1.62v6.49H32.69z"/>
	<path class="st2" d="M40.9,107.87h3.57v22.71H40.9V107.87z"/>
	<path class="st2" d="M46.9,125.32v-12.2c0-3.5,1.82-5.58,5.26-5.58c3.44,0,5.26,2.08,5.26,5.58v2.4h-3.37v-2.63
		c0-1.49-0.71-2.11-1.78-2.11c-1.07,0-1.78,0.62-1.78,2.11v12.68c0,1.49,0.71,2.08,1.78,2.08c1.07,0,1.78-0.58,1.78-2.08v-3.47h3.37
		v3.21c0,3.5-1.82,5.58-5.26,5.58C48.71,130.9,46.9,128.83,46.9,125.32z"/>
	<path class="st2" d="M59.55,107.87h9.73v3.24h-6.16v6h4.9v3.24h-4.9v6.97h6.16v3.24h-9.73V107.87z"/>
	<path class="st2" d="M70.78,125.19v-1.3h3.37v1.56c0,1.62,0.71,2.21,1.85,2.21c1.13,0,1.85-0.58,1.85-2.27
		c0-1.88-0.71-3.08-3.05-5.13c-2.98-2.63-3.96-4.48-3.96-7.07c0-3.57,1.85-5.64,5.32-5.64c3.47,0,5.19,2.08,5.19,5.71v0.94h-3.37
		v-1.17c0-1.62-0.65-2.24-1.78-2.24s-1.78,0.62-1.78,2.17c0,1.65,0.75,2.85,3.08,4.9c2.98,2.63,3.92,4.44,3.92,7.27
		c0,3.7-1.88,5.77-5.38,5.77C72.53,130.9,70.78,128.83,70.78,125.19z"/>
	<path class="st2" d="M88.65,107.87h5.25c3.57,0,5.32,1.98,5.32,5.61v2.24c0,3.63-1.75,5.61-5.32,5.61h-1.69v9.25h-3.57V107.87z
		 M93.91,118.09c1.14,0,1.75-0.52,1.75-2.14v-2.69c0-1.62-0.62-2.14-1.75-2.14h-1.69v6.97H93.91z"/>
	<path class="st2" d="M102.79,107.87h4.83l3.7,22.71h-3.57l-0.65-4.51v0.06h-4.05l-0.65,4.44H99.1L102.79,107.87z M106.69,123.05
		l-1.59-11.22h-0.06l-1.56,11.22H106.69z"/>
	<path class="st2" d="M113.05,107.87h3.57v22.71h-3.57V107.87z"/>
	<path class="st2" d="M119.27,107.87h5.45c3.57,0,5.32,1.98,5.32,5.61v11.48c0,3.63-1.75,5.61-5.32,5.61h-5.45V107.87z
		 M124.66,127.33c1.13,0,1.82-0.58,1.82-2.21v-11.81c0-1.62-0.68-2.21-1.82-2.21h-1.82v16.22H124.66z"/>
</g>
</svg>
