 <svg width="142" height="153" viewBox="0 0 142 153" fill="none" xmlns="http://www.w3.org/2000/svg">
              <g filter="url(#filter0_d_1321_303)">
                <path
                  d="M0.424069 9.31947C0.920991 6.43337 3.21691 4.18965 6.11321 3.75968L8.55165 3.39768L16.9409 3.17817L23.8764 2.9967C24.8386 2.97152 25.7976 3.11069 26.7121 3.40822C28.5546 4.00764 30.5486 3.95547 32.3606 3.26043C33.26 2.91544 34.2112 2.72628 35.1734 2.70111L67.2767 1.8611L100.834 0.983063L107.769 0.801593C108.732 0.776418 109.691 0.915589 110.605 1.21312C112.448 1.81254 114.442 1.76036 116.254 1.06532C117.153 0.720332 118.104 0.531178 119.066 0.506002L122.289 0.421669C124.65 0.359892 126.922 1.31226 128.53 3.03791L128.77 3.2947C129.353 3.92083 130.055 4.42501 130.835 4.77823C133.101 5.80484 134.578 8.03847 134.637 10.5285L134.691 12.8088L134.991 25.5125L135.59 50.92L136.699 97.9127L137.253 121.409L137.53 133.157L137.657 138.504C137.665 138.855 137.643 139.206 137.591 139.553C137.18 142.281 134.988 144.397 132.248 144.709L129.416 145.031L121.025 145.157L112.633 145.283L104.242 145.409L95.8434 145.253L87.4585 145.66L70.6755 145.912L37.136 147.539L28.7467 147.759L21.3202 147.291C20.6679 147.25 20.013 147.267 19.3634 147.342L13.9379 147.97C12.636 148.121 11.3181 148.029 10.0509 147.699L8.5029 147.296C6.70192 146.827 5.17155 145.645 4.26474 144.02C3.72323 143.05 3.42653 141.962 3.4003 140.851L3.30165 136.669L3.02445 124.921L2.47007 101.425L1.36131 54.4322L0.76183 29.0247L0.462092 16.3209L0.327763 10.6277C0.317427 10.1897 0.349681 9.75151 0.424069 9.31947Z"
                  fill="#E5F2FF" />
                <path
                  d="M95.8644 144.254L95.831 144.253L95.7975 144.255L87.4292 144.661L70.6631 144.912L70.6463 144.912L70.6296 144.913L37.101 146.54L28.7677 146.758L21.3857 146.293C20.674 146.248 19.9596 146.267 19.2509 146.349L13.8254 146.977C12.6463 147.113 11.4527 147.03 10.3051 146.731L10.0509 147.699L10.3051 146.731L8.75703 146.328C7.2192 145.928 5.91242 144.918 5.1381 143.531L4.26516 144.02L5.13809 143.531C4.67571 142.703 4.42236 141.774 4.39996 140.825L4.3013 136.643L4.02411 124.895L3.46973 101.399L2.36096 54.4061L1.76149 28.9985L1.46175 16.2948L1.32742 10.6016C1.31861 10.2283 1.3461 9.85489 1.40949 9.48672C1.83295 7.0273 3.78943 5.1153 6.25754 4.7489L8.63592 4.39581L16.9645 4.17789L23.9 3.99642C24.7485 3.97422 25.5941 4.09694 26.4006 4.35931C28.4608 5.02957 30.6905 4.97123 32.7166 4.19405L32.3606 3.26043L32.7166 4.19405C33.5097 3.88983 34.3485 3.72303 35.197 3.70083L67.3003 2.86083L100.857 1.98279L107.793 1.80132C108.641 1.77911 109.487 1.90184 110.294 2.16421C112.354 2.83447 114.583 2.77612 116.61 1.99895C117.403 1.69472 118.241 1.52792 119.09 1.50572L122.313 1.42139C124.388 1.3671 126.385 2.20411 127.798 3.72076L128.037 3.97754L128.77 3.2947L128.037 3.97755C128.711 4.70004 129.52 5.28183 130.42 5.6894C132.338 6.55801 133.588 8.44786 133.637 10.5546L133.691 12.8349L133.991 25.5387L134.59 50.9462L135.699 97.9389L136.254 121.435L136.531 133.183L136.657 138.53C136.664 138.823 136.645 139.117 136.602 139.407C136.259 141.686 134.427 143.454 132.137 143.715L129.354 144.032L121.012 144.157L112.621 144.283L104.246 144.408L95.8644 144.254Z"
                  stroke="#A7D9FF" stroke-width="2" />
              </g>
              <path
                d="M70.4998 22.0002C56.4207 22.0002 44.9998 32.9698 44.9998 46.5002C44.9998 60.0306 56.4201 71.0002 70.4998 71.0002C84.5794 71.0002 95.9998 60.0306 95.9998 46.5002C95.9998 32.9698 84.5794 22.0002 70.4998 22.0002ZM70.4656 27.2502H70.5568C71.2043 27.2502 71.7241 27.7697 71.7241 28.4169V42.271L76.7402 34.2321C76.9431 33.9063 77.3786 33.6716 77.7798 33.667C78.3817 33.667 79.002 34.0817 79.002 34.8337C79.002 35.0433 78.9564 35.253 78.8378 35.4352L71.6328 46.9199C71.4641 47.3574 71.0537 47.6673 70.5566 47.6673H70.4654C69.8179 47.6673 69.298 47.1477 69.298 46.5006V28.4173C69.298 27.7701 69.818 27.2502 70.4656 27.2502ZM51.6966 45.3335H54.7245C55.397 45.3335 55.9283 45.8531 55.9283 46.5002C55.9283 47.1474 55.3971 47.6669 54.7245 47.6669H51.6966C51.024 47.6669 50.4745 47.1474 50.4745 46.5002C50.4745 45.8531 51.024 45.3335 51.6966 45.3335ZM86.2799 45.3335H89.326C89.9986 45.3335 90.5299 45.8531 90.5299 46.5002C90.5299 47.1474 89.9986 47.6669 89.326 47.6669H86.2799C85.6073 47.6669 85.076 47.1474 85.076 46.5002C85.076 45.8531 85.6073 45.3335 86.2799 45.3335ZM70.4656 60.5002H70.5568C71.2043 60.5002 71.7241 61.0197 71.7241 61.6669V64.5835C71.7241 65.2307 71.2043 65.7502 70.5568 65.7502H70.4656C69.818 65.7502 69.2982 65.2307 69.2982 64.5835V61.6669C69.2982 61.0197 69.818 60.5002 70.4656 60.5002Z"
                fill="#80ABFF" />
              <path
                d="M56.6488 93.129C57.3704 93.0809 58.1881 93.0488 58.9578 93.0488H60.1924C61.0102 93.0488 61.5233 93.578 61.5233 94.2514C61.5233 94.9248 61.0102 95.454 60.1924 95.454H55.3821C54.6285 95.454 54.1475 94.9729 54.1475 94.2193V93.7062C54.1475 91.6218 55.4623 90.6276 56.713 89.874C57.8033 89.2166 58.8455 88.7677 58.8455 87.966C58.8455 87.501 58.4928 87.1161 57.8033 87.1161C56.4885 87.1161 56.6488 88.5111 55.3501 88.5111C54.5804 88.5111 54.1956 88.0141 54.1956 87.3085C54.1956 85.8494 55.815 84.711 57.8835 84.711C60.1604 84.711 61.3309 86.0739 61.3309 87.9018C61.3309 89.5213 60.4009 90.4673 59.3747 91.1407C58.0919 91.9906 56.6488 92.4075 56.6488 93.129ZM69.4024 93.5619V94.2514C69.4024 95.0852 68.8572 95.6143 68.1677 95.6143C67.4783 95.6143 66.9331 95.0852 66.9331 94.2514V93.5619H63.4857C62.6359 93.5619 62.203 93.0969 62.203 92.3914C62.203 92.0226 62.3473 91.6859 62.5237 91.3332L65.2655 85.7051C65.5862 85.0317 66.0191 84.7431 66.5803 84.7431C67.3019 84.7431 67.7027 85.2401 67.7027 85.9136C67.7027 86.3305 67.5424 86.6672 67.334 87.068L66.3078 89.1204C65.971 89.7939 65.6022 90.5314 65.1533 91.269C65.6985 91.2209 66.2276 91.2209 66.6284 91.2209H66.9331V90.1306C66.9331 89.2968 67.4783 88.7677 68.1677 88.7677C68.8572 88.7677 69.4024 89.2968 69.4024 90.1306V91.1568H69.8032C70.621 91.1568 71.1341 91.6859 71.1341 92.3594C71.1341 93.0328 70.621 93.5619 69.8032 93.5619H69.4024ZM73.3577 97.6346C72.6682 97.6346 72.3315 97.1376 72.3315 96.5122C72.3315 96.2236 72.3957 95.9029 72.54 95.5342L76.3241 85.1279C76.6127 84.3262 77.0777 84.0696 77.5908 84.0696C78.2803 84.0696 78.617 84.5667 78.617 85.192C78.617 85.4806 78.5528 85.8013 78.4085 86.1701L74.6244 96.5764C74.3358 97.3781 73.8708 97.6346 73.3577 97.6346ZM84.6131 87.2123C84.0358 87.2765 83.4105 87.3085 82.9455 87.3085H82.4965V87.6132C82.4965 88.447 81.9514 88.9761 81.2619 88.9761C80.5724 88.9761 80.0272 88.447 80.0272 87.6132V86.1541C80.0272 85.4005 80.5243 84.9034 81.2779 84.9034H86.1684C86.9701 84.9034 87.4191 85.3524 87.4191 86.0418C87.4191 86.3625 87.3229 86.603 87.1946 86.9077L84.1 94.7004C83.8595 95.3257 83.4426 95.6143 82.8653 95.6143C82.1277 95.6143 81.7269 95.1654 81.7269 94.4438C81.7269 94.1071 81.8231 93.7704 81.9353 93.4978L83.4907 89.6816C83.8113 88.8639 84.2122 88.0782 84.6131 87.2123Z"
                fill="#80ABFF" />
              <path
                d="M33.5961 127.207C30.2111 127.207 27.895 124.891 27.895 121.149C27.895 119.368 28.2513 118.299 28.2513 118.299H32.5271V120.081C32.5271 122.753 33.0616 123.287 33.5961 123.287C34.1306 123.287 34.4869 122.931 34.4869 121.506C34.4869 116.767 27.895 114.558 27.895 108.001C27.895 103.69 30.3892 101.196 33.5961 101.196C36.803 101.196 39.2972 103.69 39.2972 107.609C39.2972 109.177 38.9409 110.104 38.9409 110.104H34.6651V108.322C34.6651 105.65 34.1306 105.115 33.5961 105.115C33.0616 105.115 32.7053 105.471 32.7053 107.075C32.7053 111.671 39.2972 113.881 39.2972 120.437C39.2972 124.713 36.803 127.207 33.5961 127.207ZM45.9058 127.207C42.6989 127.207 40.2047 124.713 40.2047 118.655V101.73H45.015V119.724C45.015 122.931 45.3713 123.287 45.9058 123.287C46.4403 123.287 46.7966 122.931 46.7966 119.724V101.73H51.6069V118.655C51.6069 124.713 49.1126 127.207 45.9058 127.207ZM53.028 126.672V101.73H57.8383C61.7578 101.73 64.252 104.224 64.252 109.925C64.252 115.448 61.5796 118.121 57.8383 118.121V126.672H53.028ZM57.8383 114.379H58.0164C58.7291 114.379 59.4417 113.667 59.4417 109.925C59.4417 106.184 58.7291 105.471 58.0164 105.471H57.8383V114.379ZM65.1553 126.672V101.73H69.9656C73.8851 101.73 76.3793 104.224 76.3793 109.925C76.3793 115.448 73.707 118.121 69.9656 118.121V126.672H65.1553ZM69.9656 114.379H70.1438C70.8564 114.379 71.569 113.667 71.569 109.925C71.569 106.184 70.8564 105.471 70.1438 105.471H69.9656V114.379ZM83.1619 127.207C79.9551 127.207 76.9264 124.178 76.9264 114.201C76.9264 104.224 79.9551 101.196 83.1619 101.196C86.3688 101.196 89.3975 104.224 89.3975 114.201C89.3975 124.178 86.3688 127.207 83.1619 127.207ZM83.1619 123.287C83.6964 123.287 84.2309 122.753 84.2309 114.201C84.2309 105.65 83.6964 105.115 83.1619 105.115C82.6274 105.115 82.093 105.65 82.093 114.201C82.093 122.753 82.6274 123.287 83.1619 123.287ZM90.4539 126.672V101.73H95.2642C99.54 101.73 101.856 104.046 101.856 107.966C101.856 111.885 99.7182 114.023 95.2642 114.023V114.558H96.5113C99.932 114.558 101.678 116.232 101.678 119.297V124.534C101.678 126.138 102.569 126.316 102.569 126.316V126.672H98.6492C97.4734 126.672 96.8676 126.138 96.8676 124.285V118.655C96.8676 117.408 96.3332 116.874 95.2642 116.874V126.672H90.4539ZM95.2642 111.707H95.4424C96.3332 111.707 97.0458 110.994 97.0458 108.5C97.0458 106.184 96.3332 105.471 95.4424 105.471H95.2642V111.707ZM105.602 126.672V106.006H102.038V101.73H113.975V106.006H110.412V126.672H105.602Z"
                fill="#80ABFF" />
              <defs>
                <filter id="filter0_d_1321_303" x="0.325928" y="0.418854" width="141.332" height="151.622"
                  filterUnits="userSpaceOnUse" color-interpolation-filters="sRGB">
                  <feFlood flood-opacity="0" result="BackgroundImageFix" />
                  <feColorMatrix in="SourceAlpha" type="matrix" values="0 0 0 0 0 0 0 0 0 0 0 0 0 0 0 0 0 0 127 0"
                    result="hardAlpha" />
                  <feOffset dx="4" dy="4" />
                  <feComposite in2="hardAlpha" operator="out" />
                  <feColorMatrix type="matrix" values="0 0 0 0 0 0 0 0 0 0 0 0 0 0 0 0 0 0 0.25 0" />
                  <feBlend mode="normal" in2="BackgroundImageFix" result="effect1_dropShadow_1321_303" />
                  <feBlend mode="normal" in="SourceGraphic" in2="effect1_dropShadow_1321_303" result="shape" />
                </filter>
              </defs>
            </svg>