<?xml version="1.0" encoding="utf-8"?>
<!-- Generator: Adobe Illustrator 26.0.1, SVG Export Plug-In . SVG Version: 6.00 Build 0)  -->
<svg version="1.1" id="Layer_1" xmlns="http://www.w3.org/2000/svg" xmlns:xlink="http://www.w3.org/1999/xlink" x="0px" y="0px"
	 viewBox="0 0 147 150" style="enable-background:new 0 0 147 150;" xml:space="preserve">
<style type="text/css">
	.st0{fill:#80ABFF;}
	.st1{fill:#E5F2FF;}
	.st2{fill:none;stroke:#A7D9FF;stroke-width:2;}
	.st3{enable-background:new    ;}
</style>
<g>
	<path class="st1" d="M4,8.1c0.6-2.9,3-5,5.9-5.3l2.8-0.3l8.8,0.1h7.3c1,0,2,0.2,2.9,0.5c1.9,0.7,4,0.7,5.9,0c1-0.3,2-0.5,3-0.5
		l33.6,0.2L109.3,3h7.3c1,0,2,0.2,2.9,0.5c1.9,0.7,4,0.7,5.9,0c1-0.3,2-0.5,3-0.5h3.5c2.4,0,4.7,1,6.3,2.8l0.3,0.3
		c0.6,0.6,1.3,1.2,2.1,1.5c2.3,1.1,3.8,3.5,3.8,6.1v2.1l-0.1,12.7L144,53.9l-0.5,47l-0.3,23.5l-0.1,11.7l-0.1,5.3
		c0,0.4,0,0.7-0.1,1.1c-0.5,2.7-2.8,4.7-5.5,4.9l-3.2,0.2l-8.8-0.1l-8.8-0.1l-8.8-0.1l-8.8-0.4l-8.8,0.1l-17.5-0.3l-35.1,0.5
		l-8.8-0.1l-7.8-0.7c-0.6-0.1-1.2-0.1-1.9,0l-5.9,0.5c-1.3,0.1-2.6,0-3.9-0.4l-1.8-0.5c-1.8-0.5-3.3-1.7-4.1-3.3
		c-0.5-1-0.8-2.2-0.8-3.3v-4.1l0.1-11.7L3,100l0.5-47l0.3-25.4l0.1-12.7L4,9.2C3.9,9,3.9,8.5,4,8.1z"/>
	<path class="st2" d="M137.3,6.6l0.7-0.7L137.3,6.6l0.2,0.3c0.7,0.7,1.5,1.3,2.4,1.8c2,0.9,3.2,2.9,3.2,5.2V16L143,28.7L142.7,54
		l-0.5,47l-0.3,23.5l-0.1,11.7l-0.1,5.3c0,0.3,0,0.6-0.1,0.9c-0.4,2.3-2.3,3.9-4.6,4.1l-3.1,0.2l-8.7-0.1l-8.8-0.1l-8.8-0.1
		l-8.7-0.4l0,0l0,0l-8.8,0.1l-17.5-0.3l0,0l0,0l-35.1,0.5l0,0l-8.7-0.1l-7.8-0.7c-0.7-0.1-1.4-0.1-2,0l-5.9,0.5
		c-1.2,0.1-2.4,0-3.5-0.3l-1.8-0.5c-1.5-0.4-2.8-1.5-3.5-2.8c-0.5-0.9-0.7-1.8-0.7-2.8v-4.1l0.1-11.7L4,100.3l0.5-47l0.3-25.4
		l0.1-12.7L5,9.5c0-0.4,0-0.8,0.1-1.2c0.5-2.4,2.6-4.3,5-4.5l2.7-0.3l8.7,0.1h7.3c0.9,0,1.8,0.2,2.6,0.4c2.1,0.7,4.4,0.7,6.5,0
		c0.8-0.3,1.7-0.4,2.6-0.4l33.6,0.2L109.2,4h7.3c0.9,0,1.8,0.2,2.6,0.4c2.1,0.7,4.4,0.7,6.5,0c0.8-0.3,1.7-0.4,2.6-0.4h3.5
		C133.8,4.2,135.8,5.1,137.3,6.6z"/>
</g>
<g class="st3">
	<path class="st0" d="M60.2,87h6.1v2.1h-3.8v4.1h3v2.1h-3v6.4h-2.3V87z"/>
	<path class="st0" d="M68.5,87h3.1l2.4,14.7h-2.3l-0.4-2.9v0h-2.6l-0.4,2.9h-2.1L68.5,87z M71,96.8l-1-7.3h0l-1,7.3H71z"/>
	<path class="st0" d="M74.7,98.2v-0.8h2.2v1c0,1,0.5,1.4,1.2,1.4c0.7,0,1.2-0.4,1.2-1.5c0-1.2-0.5-2-2-3.3c-1.9-1.7-2.6-2.9-2.6-4.6
		c0-2.3,1.2-3.7,3.4-3.7c2.2,0,3.4,1.3,3.4,3.7v0.6h-2.2v-0.8c0-1-0.4-1.4-1.2-1.4c-0.7,0-1.2,0.4-1.2,1.4c0,1.1,0.5,1.8,2,3.2
		c1.9,1.7,2.5,2.9,2.5,4.7c0,2.4-1.2,3.7-3.5,3.7S74.7,100.6,74.7,98.2z"/>
	<path class="st0" d="M84.7,89.1h-2.4V87h7.1v2.1H87v12.6h-2.3V89.1z"/>
</g>
<g class="st3">
	<path class="st0" d="M24.7,108H30c3.7,0,5.3,1.7,5.3,5.2v1.4c0,2.3-0.7,3.8-2.3,4.5v0.1c1.8,0.6,2.4,2.2,2.4,4.8v4
		c0,1.1,0,1.9,0.4,2.8h-3.6c-0.2-0.6-0.3-0.9-0.3-2.8v-4.2c0-2.1-0.6-2.8-2.2-2.8h-1.2v9.7h-3.6V108z M29.6,117.7
		c1.3,0,2.1-0.6,2.1-2.4v-1.8c0-1.6-0.6-2.3-1.8-2.3h-1.6v6.5H29.6z"/>
	<path class="st0" d="M37.8,108h9.7v3.2h-6.2v6h4.9v3.2h-4.9v7h6.2v3.2h-9.7V108z"/>
	<path class="st0" d="M49,125.3V124h3.4v1.6c0,1.6,0.7,2.2,1.8,2.2s1.8-0.6,1.8-2.3c0-1.9-0.7-3.1-3-5.1c-3-2.6-4-4.5-4-7.1
		c0-3.6,1.8-5.6,5.3-5.6s5.2,2.1,5.2,5.7v0.9h-3.4v-1.2c0-1.6-0.6-2.2-1.8-2.2c-1.1,0-1.8,0.6-1.8,2.2c0,1.7,0.7,2.9,3.1,4.9
		c3,2.6,3.9,4.4,3.9,7.3c0,3.7-1.9,5.8-5.4,5.8C50.8,131,49,129,49,125.3z"/>
	<path class="st0" d="M61.7,108H67c3.6,0,5.3,2,5.3,5.6v2.2c0,3.6-1.8,5.6-5.3,5.6h-1.7v9.2h-3.6V108z M67,118.2
		c1.1,0,1.8-0.5,1.8-2.1v-2.7c0-1.6-0.6-2.1-1.8-2.1h-1.7v7H67z"/>
	<path class="st0" d="M74,125.3v-11.9c0-3.6,1.9-5.7,5.4-5.7s5.4,2.1,5.4,5.7v11.9c0,3.6-1.9,5.7-5.4,5.7S74,129,74,125.3z
		 M81.3,125.6v-12.4c0-1.6-0.7-2.2-1.8-2.2s-1.8,0.6-1.8,2.2v12.4c0,1.6,0.7,2.2,1.8,2.2S81.3,127.2,81.3,125.6z"/>
	<path class="st0" d="M87.2,108h4.5l3.5,13.6h0.1V108h3.2v22.7h-3.7l-4.3-16.6h-0.1v16.6h-3.2V108z"/>
	<path class="st0" d="M100.5,125.3V124h3.4v1.6c0,1.6,0.7,2.2,1.8,2.2c1.1,0,1.8-0.6,1.8-2.3c0-1.9-0.7-3.1-3-5.1
		c-3-2.6-4-4.5-4-7.1c0-3.6,1.8-5.6,5.3-5.6c3.5,0,5.2,2.1,5.2,5.7v0.9h-3.4v-1.2c0-1.6-0.6-2.2-1.8-2.2s-1.8,0.6-1.8,2.2
		c0,1.7,0.7,2.9,3.1,4.9c3,2.6,3.9,4.4,3.9,7.3c0,3.7-1.9,5.8-5.4,5.8S100.5,129,100.5,125.3z"/>
	<path class="st0" d="M113.1,108h9.7v3.2h-6.2v6h4.9v3.2h-4.9v7h6.2v3.2h-9.7V108z"/>
</g>
<g>
	<path class="st0" d="M67.6,42.7c0,1.4,0,2.8,0,4.2c0,0.5,0,1-0.6,1.2c-0.5,0.2-0.9-0.1-1.2-0.4c-1.5-1.5-3.1-3.1-4.6-4.6
		c-0.3-0.3-0.5-0.4-0.9-0.4c-1.8,0-3.5,0-5.3,0c-3.3,0-5.6-2.4-5.6-5.6c0-2.3,0-4.6,0-6.9c0-3.3,2.4-5.6,5.6-5.6c4.7,0,9.5,0,14.2,0
		c3.2,0,5.6,2.4,5.6,5.6c0,2.4,0,4.7,0,7.1c0,3.2-2.4,5.5-5.5,5.6C68.8,42.8,68.2,42.7,67.6,42.7z"/>
	<path class="st0" d="M75.2,51c-0.2-0.2-0.5-0.3-0.6-0.5c-0.4-0.4-0.7-0.7-1.3-0.5c-0.6,0.2-1.4-0.3-1.8-0.9c-0.4-0.6-0.3-1.5,0.2-2
		c0.7-0.7,1.4-1.4,2.1-2.1c0.6-0.5,1.5-0.6,2.1-0.1c0.7,0.4,1,1.2,0.7,2c-0.1,0.3,0,0.5,0.2,0.7c0.4,0.3,0.7,0.7,1.1,1
		c0,0,0.1,0,0.1,0.1c1.8-1.1,3.8-1.9,6-2.2c0-0.6,0-1.3,0-1.9c-0.6,0-1.2,0-1.7,0c-1.1,0-1.9-0.8-1.9-1.8s0.8-1.8,1.9-1.8
		c2.4,0,4.8,0,7.2,0c1.1,0,1.9,0.8,1.9,1.8s-0.8,1.8-1.9,1.8c-0.6,0-1.1,0-1.7,0c0,0.6,0,1.3,0,1.9c2.1,0.3,4.1,1,6,2.2
		c0.4-0.5,0.9-0.9,1.3-1.4c0.1-0.1,0-0.3,0-0.4c-0.2-0.9,0.1-1.7,0.8-2.1c0.7-0.4,1.6-0.3,2.3,0.4c0.6,0.6,1.1,1.1,1.7,1.7
		c0.7,0.7,0.8,1.5,0.3,2.3c-0.4,0.7-1.2,1-2.1,0.8c-0.1,0-0.3,0-0.4,0.1c-0.4,0.3-0.7,0.7-1.1,1c3.1,3.5,4.4,7.5,3.8,12
		c-0.5,3.7-2.3,6.8-5.1,9.2c-5.8,4.8-14.2,4.4-19.6-0.9C70.2,65.9,69.5,57.2,75.2,51z M98.6,61c0-7-5.7-12.7-12.7-12.8
		c-7,0-12.8,5.7-12.8,12.7s5.7,12.8,12.8,12.8C92.8,73.7,98.6,67.9,98.6,61z"/>
	<path class="st0" d="M54.8,62.8c-1.2,0-2.4,0-3.5,0S49.4,62,49.4,61c0-1.1,0.8-1.8,2-1.8c2.3,0,4.7,0,7,0c1.2,0,2,0.8,2,1.8
		c0,1.1-0.8,1.8-2,1.8C57.1,62.8,56,62.8,54.8,62.8z"/>
	<path class="st0" d="M59.4,55.5c-0.9,0-1.7,0-2.6,0c-1.1,0-1.9-0.8-1.9-1.8s0.8-1.8,1.9-1.8c1.8,0,3.5,0,5.3,0
		c1.1,0,1.9,0.8,1.9,1.8s-0.8,1.8-1.9,1.8C61.1,55.5,60.3,55.5,59.4,55.5z"/>
	<path class="st0" d="M59.4,70c-0.9,0-1.8,0-2.7,0c-1.1,0-1.9-0.8-1.9-1.8s0.8-1.8,1.9-1.8c1.8,0,3.5,0,5.3,0c1.1,0,1.9,0.8,1.9,1.8
		S63.1,70,62,70C61.1,70,60.3,70,59.4,70z"/>
	<path class="st0" d="M70.3,55.5c-0.3,1.2-0.6,2.4-0.8,3.6c-1.3,0-2.6,0-3.9,0c-0.9,0-1.6-0.9-1.6-1.7c0-0.9,0.6-1.8,1.5-1.8
		C67.1,55.5,68.7,55.5,70.3,55.5z"/>
	<path class="st0" d="M69.4,62.8c0.3,1.2,0.6,2.4,0.8,3.6c-1.6,0-3.2,0.1-4.8,0c-0.9,0-1.6-0.9-1.5-1.8c0-0.9,0.7-1.7,1.6-1.7
		C66.8,62.8,68.2,62.8,69.4,62.8z"/>
	<path class="st0" d="M75,61.9c0.5,0,1,0,1.5,0c0.7,0,1.1-0.4,1.1-0.9S77.2,60,76.5,60c-0.5,0-0.9,0-1.4,0H75c0.2-5,4.7-9.6,9.9-9.9
		c0,0.5,0,1.1,0,1.6c0,0.6,0.4,1,0.9,1c0.6,0,0.9-0.4,0.9-1.1c0-0.5,0-1,0-1.5V50c5.4,0.3,9.7,5.1,9.8,9.9c-0.5,0-0.9,0-1.4,0
		c-0.8,0-1.2,0.3-1.2,0.9c0,0.6,0.4,0.9,1.2,0.9c0.5,0,0.9,0,1.4,0c0,4.1-3.8,9.5-9.9,9.9c0-0.5,0-1,0-1.6c0-0.7-0.4-1.1-0.9-1.1
		c-0.6,0-0.9,0.4-0.9,1.1c0,0.5,0,1,0,1.5C80.5,71.7,75.3,67.7,75,61.9z M86,59.3c-1-0.2-1.9,0.6-2,1.5c-0.1,1,0.7,1.9,1.6,2
		c1,0.1,2-0.6,1.9-1.6c0-0.7,0.4-1.1,0.8-1.5s0.8-0.8,1.2-1.2c0.8-0.8,1.6-1.5,2.3-2.3c0.6-0.6,0.4-1.5-0.4-1.6
		c-0.3,0-0.8,0.1-1,0.4c-1.3,1.3-2.6,2.6-3.9,3.9C86.4,59.1,86.2,59.1,86,59.3z"/>
</g>
</svg>
