<?xml version="1.0" encoding="utf-8"?>
<!-- Generator: Adobe Illustrator 26.0.1, SVG Export Plug-In . SVG Version: 6.00 Build 0)  -->
<svg version="1.1" id="Layer_1" xmlns="http://www.w3.org/2000/svg" xmlns:xlink="http://www.w3.org/1999/xlink" x="0px" y="0px"
	 viewBox="0 0 147 150" style="enable-background:new 0 0 147 150;" xml:space="preserve">
<style type="text/css">
	.st0{fill:#E5F2FF;}
	.st1{fill:none;stroke:#A7D9FF;stroke-width:2;}
	.st2{fill:#80ABFF;}
</style>
<g>
	<path class="st0" d="M4.29,7.91c0.62-2.85,3-5,5.9-5.32l2.79-0.31l8.77,0.05l7.25,0.04c1,0.01,2,0.18,2.94,0.5
		c1.91,0.66,3.98,0.67,5.9,0.03c0.95-0.32,1.95-0.47,2.96-0.47l33.56,0.2l35.07,0.21l7.25,0.04c1,0.01,2,0.18,2.94,0.5
		c1.9,0.66,3.98,0.67,5.9,0.03c0.95-0.32,1.95-0.47,2.96-0.47l3.49,0.02c2.4,0.01,4.68,1.03,6.3,2.8l0.26,0.29
		c0.58,0.64,1.28,1.16,2.07,1.53c2.34,1.1,3.82,3.47,3.79,6.06l-0.02,2.1l-0.15,12.7l-0.3,25.41l-0.55,46.99l-0.27,23.5l-0.14,11.75
		l-0.06,5.32c0,0.37-0.04,0.73-0.11,1.09c-0.53,2.7-2.79,4.73-5.54,4.94l-3.19,0.25l-8.77-0.14l-8.77-0.15l-8.77-0.15l-8.76-0.43
		l-8.77,0.14l-17.53-0.29l-35.08,0.54l-8.77-0.05l-7.82-0.71c-0.62-0.06-1.25-0.06-1.87-0.01l-5.87,0.47
		c-1.3,0.1-2.61-0.02-3.86-0.38l-1.83-0.52c-1.78-0.5-3.27-1.7-4.14-3.32c-0.55-1.01-0.82-2.15-0.81-3.31l0.05-4.11l0.14-11.75
		l0.27-23.5l0.55-46.99l0.3-25.41l0.15-12.7l0.07-5.66C4.14,8.82,4.2,8.36,4.29,7.91z"/>
	<path class="st1" d="M137.53,6.46l0.74-0.68L137.53,6.46l0.26,0.29c0.67,0.74,1.48,1.33,2.38,1.76c1.99,0.94,3.24,2.95,3.22,5.15
		l-0.02,2.1l-0.15,12.7l-0.3,25.41l-0.55,46.99l-0.27,23.5l-0.14,11.75l-0.06,5.32c0,0.31-0.04,0.61-0.09,0.91
		c-0.44,2.26-2.34,3.95-4.63,4.13l-3.15,0.24l-8.72-0.14l-8.77-0.15l-8.75-0.15l-8.75-0.43l-0.03,0l-0.03,0l-8.75,0.14L72.7,145.7
		h-0.02h-0.02l-35.06,0.54H37.6l-8.71-0.05l-7.78-0.71c-0.68-0.06-1.36-0.07-2.04-0.01l-5.87,0.47c-1.18,0.09-2.37-0.02-3.51-0.34
		l-1.83-0.52c-1.52-0.43-2.79-1.45-3.54-2.84c-0.47-0.87-0.7-1.84-0.69-2.83l0.05-4.11l0.14-11.75l0.27-23.5l0.55-46.99l0.3-25.41
		l0.15-12.7l0.07-5.66c0-0.39,0.05-0.78,0.13-1.16C5.8,5.69,7.83,3.86,10.3,3.59l2.74-0.3l8.71,0.05L29,3.38
		c0.89,0.01,1.78,0.16,2.62,0.45c2.11,0.73,4.41,0.74,6.54,0.04c0.85-0.28,1.74-0.42,2.63-0.42l33.56,0.2l35.07,0.21l7.25,0.04
		c0.89,0.01,1.78,0.16,2.62,0.45c2.11,0.73,4.41,0.74,6.54,0.04c0.85-0.28,1.74-0.42,2.63-0.42l3.49,0.02
		C134.08,3.99,136.1,4.89,137.53,6.46z"/>
</g>
<g>
	<path class="st2" d="M60.82,86.88h6.11v2.1h-3.8v4.09h2.98v2.1h-2.98v6.4h-2.31V86.88z"/>
	<path class="st2" d="M69.15,86.88h3.13l2.39,14.7h-2.31l-0.42-2.92v0.04h-2.62l-0.42,2.88h-2.14L69.15,86.88z M71.67,96.71
		l-1.03-7.26H70.6l-1.01,7.26H71.67z"/>
	<path class="st2" d="M75.33,98.09v-0.84h2.18v1.01c0,1.05,0.46,1.43,1.2,1.43c0.74,0,1.2-0.38,1.2-1.47c0-1.22-0.46-2-1.97-3.32
		c-1.93-1.7-2.56-2.9-2.56-4.58c0-2.31,1.2-3.65,3.44-3.65c2.25,0,3.36,1.34,3.36,3.7v0.61h-2.18v-0.76c0-1.05-0.42-1.45-1.16-1.45
		c-0.73,0-1.15,0.4-1.15,1.41c0,1.07,0.48,1.85,1.99,3.17c1.93,1.7,2.54,2.88,2.54,4.7c0,2.39-1.22,3.74-3.49,3.74
		S75.33,100.45,75.33,98.09z"/>
	<path class="st2" d="M85.34,88.98h-2.42v-2.1h7.14v2.1h-2.41v12.6h-2.31V88.98z"/>
	<path class="st2" d="M38.3,107.87h5.29c3.7,0,5.29,1.72,5.29,5.22v1.39c0,2.34-0.75,3.83-2.34,4.48v0.06
		c1.78,0.55,2.37,2.24,2.37,4.8v3.99c0,1.1,0.03,1.91,0.39,2.76h-3.63c-0.19-0.58-0.32-0.94-0.32-2.79v-4.15
		c0-2.11-0.62-2.79-2.24-2.79h-1.23v9.73H38.3V107.87z M43.17,117.6c1.33,0,2.14-0.58,2.14-2.4v-1.75c0-1.62-0.55-2.34-1.82-2.34
		h-1.62v6.49H43.17z"/>
	<path class="st2" d="M51.38,107.87h9.73v3.24h-6.16v6h4.9v3.24h-4.9v6.97h6.16v3.24h-9.73V107.87z"/>
	<path class="st2" d="M62.6,125.19v-1.3h3.37v1.56c0,1.62,0.71,2.21,1.85,2.21c1.13,0,1.85-0.58,1.85-2.27
		c0-1.88-0.71-3.08-3.05-5.13c-2.98-2.63-3.96-4.48-3.96-7.07c0-3.57,1.85-5.64,5.32-5.64c3.47,0,5.19,2.08,5.19,5.71v0.94H69.8
		v-1.17c0-1.62-0.65-2.24-1.78-2.24s-1.78,0.62-1.78,2.17c0,1.65,0.75,2.85,3.08,4.9c2.98,2.63,3.92,4.44,3.92,7.27
		c0,3.7-1.88,5.77-5.38,5.77S62.6,128.83,62.6,125.19z"/>
	<path class="st2" d="M75.28,107.87h5.25c3.57,0,5.32,1.98,5.32,5.61v2.24c0,3.63-1.75,5.61-5.32,5.61h-1.69v9.25h-3.57V107.87z
		 M80.54,118.09c1.14,0,1.75-0.52,1.75-2.14v-2.69c0-1.62-0.62-2.14-1.75-2.14h-1.69v6.97H80.54z"/>
	<path class="st2" d="M87.55,125.19v-11.94c0-3.63,1.91-5.71,5.42-5.71s5.42,2.08,5.42,5.71v11.94c0,3.63-1.91,5.71-5.42,5.71
		S87.55,128.83,87.55,125.19z M94.81,125.42v-12.39c0-1.62-0.71-2.24-1.85-2.24s-1.85,0.62-1.85,2.24v12.39
		c0,1.62,0.71,2.24,1.85,2.24S94.81,127.04,94.81,125.42z"/>
	<path class="st2" d="M100.78,107.87h4.48l3.47,13.59h0.07v-13.59h3.18v22.71h-3.67L104.03,114h-0.07v16.58h-3.18V107.87z"/>
</g>
<g>
	<path class="st2" d="M67.85,42.57c0,1.44-0.01,2.82,0,4.2c0,0.5-0.03,0.96-0.57,1.19c-0.54,0.23-0.89-0.09-1.24-0.44
		c-1.53-1.53-3.06-3.05-4.58-4.6c-0.26-0.27-0.53-0.36-0.9-0.36c-1.76,0.02-3.53,0.01-5.29,0.01c-3.27-0.01-5.63-2.37-5.64-5.64
		c-0.01-2.31-0.01-4.63,0-6.95c0.01-3.27,2.37-5.63,5.65-5.63c4.74-0.01,9.49-0.01,14.23,0c3.24,0.01,5.61,2.36,5.62,5.59
		c0.01,2.35,0.01,4.71,0,7.06c-0.02,3.17-2.38,5.53-5.54,5.56C69.04,42.57,68.49,42.57,67.85,42.57z"/>
	<path class="st2" d="M75.46,50.8c-0.23-0.19-0.47-0.33-0.64-0.52c-0.37-0.41-0.68-0.69-1.33-0.46c-0.64,0.22-1.4-0.26-1.75-0.89
		c-0.36-0.65-0.33-1.47,0.17-2.02c0.67-0.73,1.36-1.43,2.09-2.09c0.58-0.53,1.46-0.55,2.12-0.13c0.66,0.42,0.98,1.2,0.74,1.98
		c-0.1,0.33-0.03,0.52,0.2,0.73c0.36,0.33,0.7,0.69,1.05,1.04c0.03,0.02,0.07,0.03,0.15,0.08c1.81-1.14,3.8-1.86,5.97-2.16
		c0-0.65,0-1.27,0-1.95c-0.59,0-1.15,0.01-1.71,0c-1.1-0.02-1.91-0.8-1.9-1.84c0.01-1.02,0.81-1.8,1.88-1.8
		c2.39-0.01,4.78-0.01,7.17,0c1.07,0,1.87,0.79,1.88,1.81c0.01,1.01-0.79,1.81-1.85,1.83c-0.57,0.01-1.14,0-1.75,0
		c0,0.64,0,1.25,0,1.94c2.1,0.31,4.11,0.99,6.01,2.22c0.44-0.46,0.9-0.91,1.32-1.38c0.07-0.08,0.05-0.27,0.02-0.4
		c-0.22-0.92,0.06-1.7,0.78-2.12c0.74-0.44,1.6-0.31,2.29,0.36c0.57,0.56,1.13,1.12,1.69,1.69c0.66,0.68,0.78,1.54,0.33,2.29
		c-0.44,0.73-1.22,1-2.12,0.77c-0.14-0.03-0.34-0.02-0.44,0.06c-0.37,0.32-0.71,0.68-1.08,1.04c3.06,3.47,4.39,7.45,3.75,12
		c-0.52,3.7-2.27,6.77-5.15,9.15c-5.81,4.81-14.22,4.4-19.56-0.92C70.49,65.83,69.81,57.05,75.46,50.8z M98.82,60.78
		c0-7.02-5.72-12.75-12.74-12.75c-7.02-0.01-12.75,5.71-12.77,12.72c-0.01,7.05,5.72,12.79,12.77,12.78
		C93.1,73.53,98.82,67.81,98.82,60.78z"/>
	<path class="st2" d="M55.1,62.61c-1.18,0-2.35,0.01-3.53,0c-1.12-0.01-1.93-0.77-1.94-1.81c-0.01-1.06,0.81-1.83,1.96-1.83
		c2.33-0.01,4.67-0.01,7,0c1.15,0,1.97,0.78,1.97,1.83c-0.01,1.05-0.83,1.8-1.99,1.81C57.41,62.61,56.26,62.61,55.1,62.61z"/>
	<path class="st2" d="M59.65,55.32c-0.87,0-1.75,0.01-2.62,0c-1.11-0.01-1.93-0.77-1.93-1.81c-0.01-1.04,0.8-1.83,1.9-1.83
		c1.76-0.01,3.53-0.01,5.29,0c1.1,0.01,1.91,0.8,1.91,1.83c-0.01,1.03-0.82,1.8-1.93,1.81C61.4,55.33,60.53,55.32,59.65,55.32z"/>
	<path class="st2" d="M59.66,69.9c-0.89,0-1.78,0.01-2.67,0c-1.07-0.01-1.87-0.79-1.89-1.8c-0.01-1.04,0.79-1.83,1.9-1.84
		c1.76-0.01,3.53-0.01,5.29,0c1.11,0.01,1.92,0.79,1.91,1.83c0,1.03-0.81,1.8-1.93,1.81C61.41,69.9,60.53,69.9,59.66,69.9z"/>
	<path class="st2" d="M70.55,55.34c-0.28,1.21-0.55,2.38-0.84,3.61c-1.28,0-2.6,0.05-3.92-0.02c-0.88-0.04-1.55-0.86-1.58-1.74
		c-0.02-0.91,0.62-1.79,1.53-1.83C67.34,55.29,68.95,55.34,70.55,55.34z"/>
	<path class="st2" d="M69.71,62.62c0.28,1.22,0.56,2.39,0.84,3.61c-1.6,0-3.2,0.05-4.8-0.02c-0.9-0.04-1.56-0.93-1.54-1.83
		c0.02-0.88,0.69-1.7,1.57-1.74C67.1,62.58,68.43,62.62,69.71,62.62z"/>
	<path class="st2" d="M75.23,61.7c0.54,0,1.03,0,1.52,0c0.71-0.01,1.13-0.36,1.12-0.93c-0.01-0.55-0.42-0.88-1.09-0.89
		c-0.47-0.01-0.95-0.01-1.42-0.01c-0.03,0-0.07-0.03-0.1-0.04c0.18-4.96,4.68-9.63,9.91-9.87c0,0.53-0.01,1.05,0,1.58
		c0.01,0.63,0.35,1.03,0.88,1.05c0.55,0.02,0.92-0.39,0.94-1.05c0.01-0.49,0.01-0.99,0.01-1.48c0-0.03,0.03-0.07,0.05-0.1
		c5.37,0.27,9.7,5.11,9.85,9.92c-0.47,0-0.94,0-1.41,0c-0.78,0-1.19,0.32-1.2,0.9c-0.01,0.58,0.42,0.92,1.18,0.92
		c0.47,0,0.94,0,1.42,0c0.01,4.11-3.81,9.51-9.88,9.94c0-0.53,0.01-1.05,0-1.57c-0.01-0.67-0.36-1.08-0.91-1.08
		c-0.55,0-0.9,0.41-0.91,1.08c-0.01,0.51,0,1.02,0,1.53C80.73,71.52,75.59,67.49,75.23,61.7z M86.23,59.07
		c-1.03-0.16-1.88,0.58-1.97,1.54c-0.09,0.98,0.65,1.88,1.64,1.98c0.96,0.1,1.97-0.62,1.95-1.56c-0.02-0.73,0.36-1.09,0.78-1.51
		c0.39-0.39,0.78-0.78,1.17-1.17c0.78-0.78,1.57-1.55,2.33-2.34c0.55-0.57,0.36-1.45-0.36-1.55c-0.31-0.05-0.76,0.13-0.99,0.36
		c-1.33,1.27-2.61,2.59-3.92,3.88C86.68,58.88,86.43,58.96,86.23,59.07z"/>
</g>
</svg>
