 <svg width="142" height="153" viewBox="0 0 142 153" fill="none" xmlns="http://www.w3.org/2000/svg">
              <g filter="url(#filter0_d_1321_297)">
                <path
                  d="M3.30909 5.75657C3.93213 2.90073 6.32358 0.78219 9.23498 0.506931L11.6881 0.275003L20.0783 0.502093L27.0145 0.689831C27.9768 0.715875 28.9287 0.905885 29.8292 1.25169C31.6435 1.94836 33.6377 2.00233 35.4783 1.40459C36.3919 1.10789 37.3504 0.969583 38.3127 0.995627L70.4196 1.86464L103.98 2.773L110.917 2.96073C111.879 2.98678 112.831 3.17679 113.731 3.52259C115.546 4.21926 117.54 4.27324 119.38 3.67549C120.294 3.37879 121.253 3.24049 122.215 3.26653L125.439 3.35379C127.8 3.4177 130.027 4.48962 131.558 6.29856L131.786 6.56787C132.341 7.2242 133.02 7.76503 133.784 8.15922C136.003 9.30511 137.38 11.6149 137.33 14.1054L137.283 16.3846L137.025 29.0878L136.509 54.4942L135.555 101.485L135.077 124.98L134.839 136.728L134.73 142.074C134.723 142.425 134.685 142.775 134.618 143.119C134.089 145.821 131.806 147.817 129.056 147.983L126.212 148.155L117.823 147.834L109.435 147.513L101.047 147.192L92.6641 146.591L84.2701 146.551L67.4934 145.909L33.9173 145.75L25.5271 145.523L18.1285 144.661C17.4789 144.585 16.8242 144.567 16.1722 144.608L10.724 144.946C9.4171 145.027 8.1048 144.866 6.8536 144.469L5.32383 143.984C3.54578 143.42 2.06924 142.158 1.23473 140.487C0.736268 139.49 0.487569 138.387 0.510157 137.275L0.595088 133.094L0.833735 121.347L1.31103 97.8514L2.26562 50.8608L2.78173 25.4543L3.03979 12.7511L3.15544 7.0583C3.16434 6.62015 3.2158 6.18419 3.30909 5.75657Z"
                  fill="#E5F2FF" />
                <path
                  d="M133.33 9.04731L133.784 8.15922L133.33 9.04731C135.207 10.0168 136.373 11.9711 136.33 14.0783L136.284 16.3575L136.026 29.0607L135.509 54.4671L134.555 101.458L134.078 124.953L133.839 136.701L133.73 142.047C133.724 142.341 133.693 142.632 133.637 142.92C133.194 145.178 131.287 146.846 128.989 146.985L126.194 147.153L117.855 146.835L109.466 146.514L101.095 146.194L92.729 145.593L92.6955 145.591L92.6621 145.59L84.2847 145.551L67.5249 144.91L67.5081 144.909L67.4914 144.909L33.9262 144.75L25.5919 144.525L18.2376 143.667C17.529 143.585 16.8147 143.565 16.1035 143.609L10.6553 143.948C9.47164 144.022 8.28308 143.875 7.14985 143.516L5.62009 143.031C4.10184 142.549 2.84106 141.471 2.12849 140.045C1.70286 139.193 1.4905 138.252 1.50979 137.302L1.59472 133.121L1.83337 121.374L2.31066 97.8785L3.26525 50.8878L3.78137 25.4814L4.03943 12.7782L4.15507 7.08536C4.16266 6.71199 4.20651 6.34049 4.28601 5.97609C4.81693 3.54251 6.85478 1.73722 9.3357 1.50266L11.7284 1.27644L20.058 1.50189L26.9942 1.68962C27.8428 1.71259 28.6822 1.88016 29.4764 2.18511C31.505 2.96408 33.7348 3.02443 35.7928 2.35607C36.5985 2.09442 37.4438 1.97245 38.2924 1.99542L70.3993 2.86443L103.96 3.77279L110.896 3.96053C111.745 3.9835 112.584 4.15106 113.379 4.45601C115.407 5.23498 117.637 5.29533 119.695 4.62697C120.501 4.36532 121.346 4.24336 122.195 4.26633L125.419 4.35359C127.494 4.40975 129.451 5.35186 130.797 6.94174L131.024 7.21104C131.665 7.96839 132.449 8.59246 133.33 9.04731Z"
                  stroke="#A7D9FF" stroke-width="2" />
              </g>
              <path fill-rule="evenodd" clip-rule="evenodd"
                d="M48.2405 64.4586L44.9473 64.6239C43.1268 64.7154 41.5742 63.3022 41.4816 61.4594L39.968 31.3159C39.8757 29.4784 41.2813 27.9115 43.0812 27.8211L69.479 26.4955C71.2917 26.4045 72.8345 27.826 72.9278 29.6844L73.1794 34.6953L82.2581 34.2394C82.7036 34.217 83.305 34.4725 83.6171 34.8289L93.0339 45.6188C93.3378 45.9652 93.6025 46.6096 93.6262 47.0802L94.2151 58.8085C94.3075 60.6487 92.9173 62.2148 91.084 62.3069L87.7907 62.4722C87.6051 58.7762 84.5039 55.9288 80.863 56.1117C77.2222 56.2945 74.4218 59.4382 74.6074 63.1342L61.424 63.7962C61.2384 60.1002 58.1371 57.2528 54.4963 57.4357C50.8554 57.6185 48.055 60.7626 48.2405 64.4586ZM73.3473 38.0412L73.8513 48.0786L90.3305 47.2511L81.5869 37.6275L73.3473 38.0412ZM81.451 67.8223C78.7217 67.9593 76.3944 65.8226 76.2553 63.0518C76.1161 60.2811 78.2177 57.922 80.947 57.7849C83.6764 57.6479 86.0037 59.7846 86.1428 62.5553C86.2819 65.3261 84.1804 67.6852 81.451 67.8223ZM55.0843 69.1463C52.3549 69.2833 50.0276 67.1465 49.8885 64.3758C49.7493 61.6051 51.8509 59.246 54.5802 59.1089C57.3096 58.9719 59.6369 61.1086 59.776 63.8793C59.9151 66.65 57.8136 69.0092 55.0843 69.1463Z"
                fill="#80ABFF" />
              <path
                d="M53.747 89.2968H55.5589C56.3606 89.2968 56.8577 89.8099 56.8577 90.4673C56.8577 91.1247 56.3606 91.6378 55.5589 91.6378H53.747V94.2354C53.747 95.0852 53.2018 95.6143 52.4963 95.6143C51.8069 95.6143 51.2457 95.0852 51.2457 94.2354V86.1541C51.2457 85.4005 51.7427 84.9034 52.4963 84.9034H57.2104C58.0442 84.9034 58.5573 85.4325 58.5573 86.122C58.5573 86.8115 58.0442 87.3406 57.2104 87.3406H53.747V89.2968ZM63.163 91.5576C62.7782 90.6116 62.5056 89.7778 62.233 88.8318C61.9605 89.7778 61.6718 90.6116 61.3031 91.5576H63.163ZM64.0129 93.7062H60.4372L60.0524 94.6202C59.7958 95.2135 59.4751 95.6143 58.8017 95.6143C58.0802 95.6143 57.5991 95.1333 57.5991 94.4438C57.5991 94.2193 57.6472 93.8987 57.7755 93.594L60.9663 85.7853C61.255 85.0798 61.6558 84.7431 62.233 84.7431C62.8103 84.7431 63.2111 85.0798 63.4998 85.7853L66.6906 93.594C66.8189 93.8987 66.867 94.2193 66.867 94.4438C66.867 95.1333 66.3859 95.6143 65.6644 95.6143C64.991 95.6143 64.6703 95.2135 64.4137 94.6202L64.0129 93.7062ZM71.303 95.6464C69.1063 95.6464 67.4547 94.7645 67.4547 93.4818C67.4547 92.8564 67.8556 92.3594 68.6413 92.3594C69.7316 92.3594 69.6354 93.3054 71.335 93.3054C72.2169 93.3054 72.5697 93.0328 72.5697 92.5838C72.5697 91.7661 71.5274 91.6218 70.4531 91.2851C69.1223 90.8842 67.6151 90.0504 67.6151 87.8858C67.6151 85.9456 68.8497 84.711 71.335 84.711C73.4836 84.711 74.7343 85.641 74.7343 86.6992C74.7343 87.3246 74.3014 87.7735 73.5798 87.7735C72.6819 87.7735 72.6498 87.052 71.3831 87.052C70.5333 87.052 70.1806 87.3566 70.1806 87.8377C70.1806 88.6234 71.0945 88.8959 71.9764 89.1525C73.4035 89.5854 75.1352 90.2108 75.1352 92.5037C75.1352 94.3636 73.9486 95.6464 71.303 95.6464ZM81.0737 87.3406V94.2354C81.0737 95.0852 80.5286 95.6143 79.8231 95.6143C79.1176 95.6143 78.5724 95.0852 78.5724 94.2354V87.3406H76.969C76.1352 87.3406 75.6221 86.8115 75.6221 86.122C75.6221 85.4325 76.1352 84.9034 76.969 84.9034H82.6772C83.511 84.9034 84.0241 85.4325 84.0241 86.122C84.0241 86.8115 83.511 87.3406 82.6772 87.3406H81.0737Z"
                fill="#80ABFF" />
              <path
                d="M29.1313 127.207C25.7462 127.207 23.4302 124.891 23.4302 121.149C23.4302 119.368 23.7865 118.299 23.7865 118.299H28.0623V120.081C28.0623 122.753 28.5968 123.287 29.1313 123.287C29.6657 123.287 30.0221 122.931 30.0221 121.506C30.0221 116.767 23.4302 114.558 23.4302 108.001C23.4302 103.69 25.9244 101.196 29.1313 101.196C32.3381 101.196 34.8323 103.69 34.8323 107.609C34.8323 109.177 34.476 110.104 34.476 110.104H30.2002V108.322C30.2002 105.65 29.6657 105.115 29.1313 105.115C28.5968 105.115 28.2405 105.471 28.2405 107.075C28.2405 111.671 34.8323 113.881 34.8323 120.437C34.8323 124.713 32.3381 127.207 29.1313 127.207ZM35.7398 126.672V101.73H40.5501V112.063H42.3317V101.73H47.142V126.672H42.3317V116.339H40.5501V126.672H35.7398ZM48.5631 126.672V101.73H53.3734V126.672H48.5631ZM54.8098 126.672V101.73H59.6201C63.5396 101.73 66.0339 104.224 66.0339 109.925C66.0339 115.448 63.3615 118.121 59.6201 118.121V126.672H54.8098ZM59.6201 114.379H59.7983C60.5109 114.379 61.2236 113.667 61.2236 109.925C61.2236 106.184 60.5109 105.471 59.7983 105.471H59.6201V114.379ZM66.9372 126.672V101.73H71.7475C75.667 101.73 78.1612 104.224 78.1612 109.925C78.1612 115.448 75.4888 118.121 71.7475 118.121V126.672H66.9372ZM71.7475 114.379H71.9256C72.6383 114.379 73.3509 113.667 73.3509 109.925C73.3509 106.184 72.6383 105.471 71.9256 105.471H71.7475V114.379ZM79.0645 126.672V101.73H83.8748V126.672H79.0645ZM85.3112 126.672V101.73H90.1215L93.6847 120.081H94.2192L92.2594 101.73H97.2479V126.672H92.4376L88.8744 108.322H88.3399L90.2997 126.672H85.3112ZM104.714 127.207C101.329 127.207 98.3001 124.178 98.3001 114.201C98.3001 104.224 101.329 101.196 104.714 101.196C107.743 101.196 110.237 103.868 110.237 108.856C110.237 110.638 109.88 111.707 109.88 111.707H105.605V109.925C105.605 105.65 105.07 105.115 104.536 105.115C104.001 105.115 103.467 105.65 103.467 114.201V114.558H109.702C109.702 114.558 110.237 116.161 110.237 118.655C110.237 124.713 107.743 127.207 104.714 127.207ZM104.536 123.287C105.07 123.287 105.605 122.753 105.605 118.833V117.943H103.467C103.645 122.931 104.001 123.287 104.536 123.287Z"
                fill="#80ABFF" />
              <defs>
                <filter id="filter0_d_1321_297" x="0.508789" y="0.274994" width="140.822" height="151.88"
                  filterUnits="userSpaceOnUse" color-interpolation-filters="sRGB">
                  <feFlood flood-opacity="0" result="BackgroundImageFix" />
                  <feColorMatrix in="SourceAlpha" type="matrix" values="0 0 0 0 0 0 0 0 0 0 0 0 0 0 0 0 0 0 127 0"
                    result="hardAlpha" />
                  <feOffset dx="4" dy="4" />
                  <feComposite in2="hardAlpha" operator="out" />
                  <feColorMatrix type="matrix" values="0 0 0 0 0 0 0 0 0 0 0 0 0 0 0 0 0 0 0.25 0" />
                  <feBlend mode="normal" in2="BackgroundImageFix" result="effect1_dropShadow_1321_297" />
                  <feBlend mode="normal" in="SourceGraphic" in2="effect1_dropShadow_1321_297" result="shape" />
                </filter>
              </defs>
            </svg>