<?xml version="1.0" encoding="utf-8"?>
<!-- Generator: Adobe Illustrator 26.0.1, SVG Export Plug-In . SVG Version: 6.00 Build 0)  -->
<svg version="1.1" id="Layer_1" xmlns="http://www.w3.org/2000/svg" xmlns:xlink="http://www.w3.org/1999/xlink" x="0px" y="0px"
	 viewBox="0 0 147 150" style="enable-background:new 0 0 147 150;" xml:space="preserve">
<style type="text/css">
	.st0{fill:#E5F2FF;}
	.st1{fill:none;stroke:#A7D9FF;stroke-width:2;}
	.st2{fill:#80ABFF;}
</style>
<g>
	<path class="st0" d="M4.29,7.91c0.62-2.85,3-5,5.9-5.32l2.79-0.31l8.77,0.05l7.25,0.04c1,0.01,2,0.18,2.94,0.5
		c1.91,0.66,3.98,0.67,5.9,0.03c0.95-0.32,1.95-0.47,2.96-0.47l33.56,0.2l35.07,0.21l7.25,0.04c1,0.01,2,0.18,2.94,0.5
		c1.9,0.66,3.98,0.67,5.9,0.03c0.95-0.32,1.95-0.47,2.96-0.47l3.49,0.02c2.4,0.01,4.68,1.03,6.3,2.8l0.26,0.29
		c0.58,0.64,1.28,1.16,2.07,1.53c2.34,1.1,3.82,3.47,3.79,6.06l-0.02,2.1l-0.15,12.7l-0.3,25.41l-0.55,46.99l-0.27,23.5l-0.14,11.75
		l-0.06,5.32c0,0.37-0.04,0.73-0.11,1.09c-0.53,2.7-2.79,4.73-5.54,4.94l-3.19,0.25l-8.77-0.14l-8.77-0.15l-8.77-0.15l-8.76-0.43
		l-8.77,0.14l-17.53-0.29l-35.08,0.54l-8.77-0.05l-7.82-0.71c-0.62-0.06-1.25-0.06-1.87-0.01l-5.87,0.47
		c-1.3,0.1-2.61-0.02-3.86-0.38l-1.83-0.52c-1.78-0.5-3.27-1.7-4.14-3.32c-0.55-1.01-0.82-2.15-0.81-3.31l0.05-4.11l0.14-11.75
		l0.27-23.5l0.55-46.99l0.3-25.41l0.15-12.7l0.07-5.66C4.14,8.82,4.2,8.36,4.29,7.91z"/>
	<path class="st1" d="M137.53,6.46l0.74-0.68L137.53,6.46l0.26,0.29c0.67,0.74,1.48,1.33,2.38,1.76c1.99,0.94,3.24,2.95,3.22,5.15
		l-0.02,2.1l-0.15,12.7l-0.3,25.41l-0.55,46.99l-0.27,23.5l-0.14,11.75l-0.06,5.32c0,0.31-0.04,0.61-0.09,0.91
		c-0.44,2.26-2.34,3.95-4.63,4.13l-3.15,0.24l-8.72-0.14l-8.77-0.15l-8.75-0.15l-8.75-0.43l-0.03,0l-0.03,0l-8.75,0.14L72.7,145.7
		h-0.02h-0.02l-35.06,0.54H37.6l-8.71-0.05l-7.78-0.71c-0.68-0.06-1.36-0.07-2.04-0.01l-5.87,0.47c-1.18,0.09-2.37-0.02-3.51-0.34
		l-1.83-0.52c-1.52-0.43-2.79-1.45-3.54-2.84c-0.47-0.87-0.7-1.84-0.69-2.83l0.05-4.11l0.14-11.75l0.27-23.5l0.55-46.99l0.3-25.41
		l0.15-12.7l0.07-5.66c0-0.39,0.05-0.78,0.13-1.16C5.8,5.69,7.83,3.86,10.3,3.59l2.74-0.3l8.71,0.05L29,3.38
		c0.89,0.01,1.78,0.16,2.62,0.45c2.11,0.73,4.41,0.74,6.54,0.04c0.85-0.28,1.74-0.42,2.63-0.42l33.56,0.2l35.07,0.21l7.25,0.04
		c0.89,0.01,1.78,0.16,2.62,0.45c2.11,0.73,4.41,0.74,6.54,0.04c0.85-0.28,1.74-0.42,2.63-0.42l3.49,0.02
		C134.08,3.99,136.1,4.89,137.53,6.46z"/>
</g>
<g>
	<path class="st2" d="M41.23,86.88h2.31v14.7h-2.31V86.88z"/>
	<path class="st2" d="M45.27,86.88h3.3l1.47,10.52h0.04l1.47-10.52h3.3v14.7h-2.18V90.45h-0.04l-1.68,11.13H49l-1.68-11.13h-0.04
		v11.13h-2.02V86.88z"/>
	<path class="st2" d="M56.56,86.88h3.3l1.47,10.52h0.04l1.47-10.52h3.3v14.7h-2.18V90.45h-0.04l-1.68,11.13H60.3l-1.68-11.13h-0.04
		v11.13h-2.02V86.88z"/>
	<path class="st2" d="M67.86,86.88h6.3v2.1h-3.99v3.88h3.17v2.1h-3.17v4.51h3.99v2.1h-6.3V86.88z"/>
	<path class="st2" d="M75.48,86.88h3.53c2.31,0,3.44,1.28,3.44,3.63v7.43c0,2.35-1.13,3.63-3.44,3.63h-3.53V86.88z M78.97,99.48
		c0.74,0,1.18-0.38,1.18-1.43v-7.64c0-1.05-0.44-1.43-1.18-1.43h-1.18v10.5H78.97z"/>
	<path class="st2" d="M84.01,86.88h2.31v14.7h-2.31V86.88z"/>
	<path class="st2" d="M89.83,86.88h3.13l2.39,14.7h-2.31l-0.42-2.92v0.04h-2.62l-0.42,2.88h-2.14L89.83,86.88z M92.35,96.71
		l-1.03-7.26h-0.04l-1.01,7.26H92.35z"/>
	<path class="st2" d="M97.3,88.98h-2.42v-2.1h7.14v2.1h-2.41v12.6H97.3V88.98z"/>
	<path class="st2" d="M103.14,86.88h6.3v2.1h-3.99v3.88h3.17v2.1h-3.17v4.51h3.99v2.1h-6.3V86.88z"/>
	<path class="st2" d="M31.18,107.87h5.25c3.57,0,5.32,1.98,5.32,5.61v2.24c0,3.63-1.75,5.61-5.32,5.61h-1.69v9.25h-3.57V107.87z
		 M36.43,118.09c1.14,0,1.75-0.52,1.75-2.14v-2.69c0-1.62-0.62-2.14-1.75-2.14h-1.69v6.97H36.43z"/>
	<path class="st2" d="M45.32,107.87h4.83l3.7,22.71h-3.57l-0.65-4.51v0.06h-4.05l-0.65,4.44h-3.31L45.32,107.87z M49.22,123.05
		l-1.59-11.22h-0.06l-1.56,11.22H49.22z"/>
	<path class="st2" d="M57.36,120.91l-4.31-13.04h3.8l2.43,8.34h0.07l2.43-8.34h3.47l-4.31,13.04v9.67h-3.57V120.91z"/>
	<path class="st2" d="M66.87,107.87h5.09l2.27,16.25h0.06l2.27-16.25h5.09v22.71h-3.37v-17.19h-0.06l-2.6,17.19h-2.98l-2.59-17.19
		h-0.07v17.19h-3.11V107.87z"/>
	<path class="st2" d="M84.32,107.87h9.73v3.24h-6.16v6h4.9v3.24h-4.9v6.97h6.16v3.24h-9.73V107.87z"/>
	<path class="st2" d="M96.1,107.87h4.48l3.47,13.59h0.07v-13.59h3.18v22.71h-3.67L99.34,114h-0.07v16.58H96.1V107.87z"/>
	<path class="st2" d="M112.74,111.12h-3.73v-3.24h11.03v3.24h-3.73v19.46h-3.57V111.12z"/>
</g>
<g>
	<path class="st2" d="M100.46,63c0,6.6-5.43,12.01-12.03,12c-6.61-0.01-12-5.43-11.98-12.04c0.01-6.61,5.44-12,12.04-11.97
		C95.09,51.01,100.47,56.42,100.46,63z M83.03,58.39c1.86,0,3.68,0,5.49,0c0.32,0,0.64,0.01,0.95,0.07c0.9,0.16,1.73,0.94,1.83,1.74
		c-2.76,0-5.51,0-8.25,0c0,0.56,0,1.07,0,1.63c2.79,0,5.53,0,8.3,0c-0.39,1.11-1.29,1.73-2.5,1.75c-1.28,0.02-2.56,0-3.84,0.01
		c-0.18,0-0.36,0.02-0.54,0.03c0,0.55,0,1.04,0,1.6c0.58-0.16,0.85,0.24,1.17,0.55c1.62,1.62,3.24,3.24,4.86,4.86
		c0.13,0.13,0.26,0.24,0.28,0.26c0.43-0.36,0.83-0.69,1.31-1.1c-1.55-1.53-3.06-3.02-4.67-4.61c2.75,0.25,4.85-0.5,5.67-3.38
		c0.4,0,0.8,0,1.21,0c0-0.56,0-1.07,0-1.62c-0.43,0-0.83,0-1.16,0c-0.28-0.62-0.54-1.17-0.82-1.79c0.69,0,1.33,0,1.98,0
		c0-0.56,0-1.05,0-1.56c-3.77,0-7.52,0-11.27,0C83.03,57.34,83.03,57.82,83.03,58.39z"/>
	<path class="st2" d="M97.44,47.97c0-0.68-0.04-1.37-0.1-2.07c-0.01-0.09-0.01-0.18-0.02-0.27c-0.08-0.72-0.18-1.44-0.33-2.16
		c-0.04-0.18-0.09-0.35-0.13-0.53c-0.11-0.48-0.23-0.95-0.37-1.42c-0.09-0.31-0.19-0.62-0.29-0.92c-0.11-0.33-0.24-0.66-0.36-0.99
		c-0.13-0.33-0.25-0.66-0.39-0.98c-0.16-0.37-0.34-0.72-0.52-1.08c-0.24-0.48-0.5-0.95-0.77-1.41c-0.19-0.33-0.39-0.66-0.6-0.99
		c-0.18-0.27-0.37-0.54-0.56-0.8c-0.22-0.31-0.45-0.61-0.68-0.92c-0.2-0.26-0.41-0.51-0.63-0.76c-0.24-0.28-0.49-0.55-0.75-0.82
		c-0.24-0.25-0.48-0.51-0.73-0.75c-0.23-0.22-0.47-0.43-0.71-0.64c-0.3-0.27-0.61-0.55-0.92-0.8c-0.12-0.1-0.26-0.19-0.39-0.29
		c-1.16-0.89-2.39-1.68-3.7-2.36c-0.5-0.26-0.99-0.5-1.5-0.72c-0.08-0.03-0.16-0.06-0.24-0.1c-5.15-2.16-10.79-2.38-15.99-0.78
		c-0.09,0.03-0.18,0.05-0.27,0.08c-0.61,0.19-1.2,0.41-1.8,0.66c-0.12,0.05-0.24,0.09-0.36,0.14c-0.64,0.27-1.27,0.58-1.88,0.91
		c-0.35,0.19-0.68,0.4-1.02,0.6c-0.26,0.16-0.52,0.31-0.78,0.47c-0.36,0.24-0.71,0.49-1.06,0.75c-0.23,0.17-0.45,0.33-0.68,0.5
		c-0.32,0.25-0.63,0.52-0.93,0.79c-0.26,0.23-0.52,0.46-0.77,0.7c-0.23,0.22-0.46,0.45-0.68,0.68c-0.15,0.15-0.31,0.29-0.46,0.45
		c-0.22,0.24-0.41,0.49-0.62,0.73c-0.08,0.09-0.15,0.18-0.23,0.27c-6.55,7.91-7.31,19.31-1.46,28.16
		c5.69,8.6,15.21,11.43,22.23,10.55c0.04,0,0.07-0.01,0.11-0.02c-1.8-2.5-2.86-5.56-2.86-8.86c0.02-8.37,6.89-15.2,15.26-15.17
		c3.27,0.01,6.3,1.08,8.78,2.87c0.01-0.14,0.04-0.27,0.05-0.41c0.07-0.64,0.09-1.3,0.1-1.97c0-0.04,0.01-0.08,0.01-0.11
		C97.45,48.09,97.44,48.03,97.44,47.97z M54.6,48.95c-0.53,0-1.03,0-1.55,0c0-0.52,0-1.02,0-1.55c0.5,0,1.01,0,1.55,0
		C54.6,47.9,54.6,48.39,54.6,48.95z M59.55,63.2c-0.29-0.28-0.65-0.63-1.03-1c0.39-0.36,0.77-0.71,1.14-1.06
		c0.31,0.32,0.66,0.68,0.99,1.02C60.3,62.48,59.93,62.83,59.55,63.2z M59.59,35.23c-0.29-0.35-0.62-0.75-0.96-1.16
		c0.28-0.25,0.67-0.6,1.03-0.93c0.31,0.3,0.69,0.65,1.08,1.03C60.36,34.52,59.99,34.86,59.59,35.23z M72.86,27.57
		c0.53,0,1.03,0,1.56,0c0,0.52,0,1.02,0,1.55c-0.5,0-1.01,0-1.56,0C72.86,28.62,72.86,28.12,72.86,27.57z M72.85,31.79
		c0.51,0,1,0,1.54,0c0,3.62,0,7.26,0,10.93c-0.52,0-1.02,0-1.54,0C72.85,39.08,72.85,35.46,72.85,31.79z M73.66,51.49
		c-1.84,0-3.34-1.5-3.34-3.33c0-1.82,1.53-3.34,3.35-3.33c1.81,0.01,3.29,1.5,3.3,3.31C76.98,50,75.51,51.49,73.66,51.49z
		 M78.1,44.79c-0.34-0.34-0.7-0.7-1.03-1.03c1.3-1.3,2.66-2.66,4.01-4.01c0.29,0.32,0.64,0.69,0.99,1.07
		C80.78,42.11,79.41,43.48,78.1,44.79z M87.69,35.2c-0.32-0.36-0.66-0.74-1-1.13c0.26-0.26,0.62-0.62,1-1
		c0.33,0.36,0.68,0.74,1.04,1.13C88.41,34.51,88.05,34.86,87.69,35.2z"/>
</g>
</svg>
